Mekorot-Rashi-Bold-Italic.ufo
<glyph name="dollar" format="2">
  <advance width="611"/>
  <unicode hex="0024"/>
  <outline>
    <contour>
      <point x="349.908" y="571.532" type="curve" smooth="yes"/>
      <point x="311.91" y="427.501" type="line" smooth="yes"/>
      <point x="311.407" y="426.51"/>
      <point x="310.584" y="424.396"/>
      <point x="310.109" y="423.683" type="curve" smooth="yes"/>
      <point x="305.169" y="416.238"/>
      <point x="286.376" y="402.964"/>
      <point x="278.036" y="400.393" type="curve" smooth="yes"/>
      <point x="275.999" y="399.767"/>
      <point x="274.296" y="399.52"/>
      <point x="272.747" y="399.52" type="curve" smooth="yes"/>
      <point x="271.396" y="399.52" type="line"/>
      <point x="270.187" y="399.831" type="line" smooth="yes"/>
      <point x="267.056" y="400.636"/>
      <point x="258.383" y="401.616"/>
      <point x="254.279" y="403.472" type="curve" smooth="yes"/>
      <point x="241.703" y="409.155"/>
      <point x="229.801" y="422.345"/>
      <point x="230.11" y="437.966" type="curve" smooth="yes"/>
      <point x="230.133" y="439.089"/>
      <point x="230.41" y="441.781"/>
      <point x="230.841" y="444.193" type="curve"/>
      <point x="230.614" y="444.576" type="line" smooth="yes"/>
      <point x="229.532" y="446.36"/>
      <point x="227.935" y="448.412"/>
      <point x="226.057" y="451.51" type="curve" smooth="yes"/>
      <point x="220.415" y="460.812"/>
      <point x="218.665" y="469.668"/>
      <point x="221.858" y="481.773" type="curve" smooth="yes"/>
      <point x="225.183" y="494.374"/>
      <point x="232.507" y="506.955"/>
      <point x="234.347" y="513.273" type="curve" smooth="yes"/>
      <point x="234.361" y="513.324"/>
      <point x="234.401" y="513.479"/>
      <point x="234.415" y="513.529" type="curve" smooth="yes"/>
      <point x="234.436" y="513.609"/>
      <point x="234.499" y="513.846"/>
      <point x="234.519" y="513.926" type="curve" smooth="yes"/>
      <point x="236.53" y="521.55"/>
      <point x="240.347" y="527.81"/>
      <point x="244.199" y="532.99" type="curve" smooth="yes"/>
      <point x="247.665" y="537.645"/>
      <point x="250.994" y="541.034"/>
      <point x="252.674" y="543.195" type="curve"/>
      <point x="252.917" y="544.114" type="line"/>
      <point x="254.211" y="545.692" type="line" smooth="yes"/>
      <point x="258.507" y="550.928"/>
      <point x="259.838" y="563.821"/>
      <point x="283.01" y="571.199" type="curve"/>
      <point x="283.097" y="571.348" type="line"/>
      <point x="283.363" y="571.406" type="line"/>
      <point x="284.919" y="573.61"/>
      <point x="286.82" y="575.992"/>
      <point x="289.15" y="578.5" type="curve"/>
      <point x="230.474" y="554.457"/>
      <point x="186.295" y="500.832"/>
      <point x="172.016" y="446.709" type="curve" smooth="yes"/>
      <point x="164.292" y="417.431"/>
      <point x="165.287" y="388.62"/>
      <point x="177.166" y="364.184" type="curve" smooth="yes"/>
      <point x="187.091" y="343.771"/>
      <point x="201.389" y="325.812"/>
      <point x="222.517" y="313.021" type="curve" smooth="yes"/>
      <point x="230.912" y="308.516"/>
      <point x="240.014" y="304.489"/>
      <point x="249.429" y="300.986" type="curve" smooth="yes"/>
      <point x="250.034" y="300.761"/>
      <point x="250.421" y="300.72"/>
      <point x="254.214" y="299.428" type="curve" smooth="yes"/>
      <point x="259.397" y="297.664"/>
      <point x="261.871" y="296.233"/>
      <point x="263.436" y="295.15" type="curve" smooth="yes"/>
      <point x="264.808" y="294.201"/>
      <point x="265.795" y="293.157"/>
      <point x="266.392" y="292.154" type="curve" smooth="yes"/>
      <point x="266.916" y="291.23" type="line"/>
      <point x="267.369" y="292.95" type="line"/>
      <point x="388.554" y="248.608" type="line"/>
      <point x="370.699" y="186.526" type="line"/>
      <point x="379.854" y="193.325" type="line"/>
      <point x="387.508" y="199.009" type="line"/>
      <point x="387.149" y="197.141" type="line"/>
      <point x="389.974" y="200.84" type="line"/>
      <point x="393.202" y="203.238" type="line"/>
      <point x="397.093" y="202.272" type="line" smooth="yes"/>
      <point x="401.792" y="200.989"/>
      <point x="401.29" y="201.115"/>
      <point x="402.22" y="200.668" type="curve" smooth="yes"/>
      <point x="403.399" y="200.102"/>
      <point x="405.599" y="195.396"/>
      <point x="405.251" y="194.077" type="curve" smooth="yes"/>
      <point x="404.874" y="192.65"/>
      <point x="396.457" y="186.942"/>
      <point x="394.729" y="186.942" type="curve" smooth="yes"/>
      <point x="394.103" y="186.942"/>
      <point x="394.752" y="186.339"/>
      <point x="391.383" y="186.14" type="curve" smooth="yes"/>
      <point x="388.595" y="185.976" type="line"/>
      <point x="388.491" y="186.06" type="line"/>
      <point x="388.467" y="186.06" type="line"/>
      <point x="385.511" y="188.553" type="line"/>
      <point x="382.657" y="190.989" type="line"/>
      <point x="382.596" y="191.042" type="line"/>
      <point x="379.854" y="193.325" type="line"/>
      <point x="387.508" y="199.009" type="line"/>
      <point x="389.974" y="200.84" type="line"/>
      <point x="391.964" y="203.448" type="line"/>
      <point x="393.14" y="203.191" type="line"/>
      <point x="425.479" y="227.21" type="line"/>
      <point x="409.859" y="168.001" type="line"/>
      <point x="400.005" y="176.662" type="line" smooth="yes"/>
      <point x="397.126" y="179.192"/>
      <point x="393.327" y="182.078"/>
      <point x="388.595" y="185.976" type="curve"/>
      <point x="388.568" y="185.974" type="line"/>
      <point x="388.467" y="186.06" type="line"/>
      <point x="388.256" y="186.059" type="line"/>
      <point x="370.563" y="186.059" type="line"/>
      <point x="323.227" y="21.4678" type="line"/>
      <point x="203.432" y="12.9385" type="line"/>
      <point x="202.549" y="9.59473" type="line"/>
      <point x="324.431" y="9.59473" type="line"/>
      <point x="328.007" y="12.0674"/>
      <point x="331.619" y="13.7734"/>
      <point x="334.992" y="15.2656" type="curve" smooth="yes"/>
      <point x="345.493" y="19.9111"/>
      <point x="353.137" y="20.5166"/>
      <point x="364.053" y="23.4941" type="curve" smooth="yes"/>
      <point x="382.085" y="28.4111"/>
      <point x="398.358" y="35.3887"/>
      <point x="412.537" y="44.5205" type="curve" smooth="yes"/>
      <point x="469.178" y="81.001"/>
      <point x="503.187" y="141.729"/>
      <point x="519.467" y="203.437" type="curve" smooth="yes"/>
      <point x="519.666" y="204.195"/>
      <point x="520.251" y="206.467"/>
      <point x="520.442" y="207.225" type="curve" smooth="yes"/>
      <point x="530.997" y="249.157"/>
      <point x="506.423" y="292.651"/>
      <point x="470.625" y="322.34" type="curve" smooth="yes"/>
      <point x="460.599" y="330.099"/>
      <point x="449.507" y="337.234"/>
      <point x="437.744" y="344.404" type="curve" smooth="yes"/>
      <point x="436.5" y="345.161"/>
      <point x="429.314" y="347.831"/>
      <point x="424.618" y="351.088" type="curve" smooth="yes"/>
      <point x="421.802" y="353.04"/>
      <point x="417.541" y="359.256"/>
      <point x="416.271" y="360.612" type="curve" smooth="yes"/>
      <point x="415.67" y="361.254" type="line"/>
      <point x="415.33" y="362.063" type="line" smooth="yes"/>
      <point x="412.542" y="368.717"/>
      <point x="413.413" y="376.023"/>
      <point x="415.003" y="382.053" type="curve" smooth="yes"/>
      <point x="415.836" y="385.21"/>
      <point x="417.852" y="391.044"/>
      <point x="417.874" y="391.126" type="curve" smooth="yes"/>
      <point x="473.513" y="602.028" type="line"/>
      <point x="473.655" y="602.572" type="line"/>
      <point x="358.986" y="602.572" type="line"/>
      <point x="356.816" y="594.348" type="line"/>
      <point x="339.762" y="592.035" type="line"/>
      <point x="344.824" y="587.483"/>
      <point x="349.242" y="580.661"/>
      <point x="350.073" y="575.566" type="curve" smooth="yes"/>
      <point x="350.378" y="573.7"/>
      <point x="350.121" y="572.339"/>
    </contour>
    <contour>
      <point x="165.329" y="22.123" type="line" smooth="yes"/>
      <point x="161.476" y="23.5879"/>
      <point x="152.224" y="26.418"/>
      <point x="143.826" y="31.0762" type="curve"/>
      <point x="154.689" y="28.2754"/>
      <point x="166.13" y="26.5928"/>
      <point x="177.932" y="26.1953" type="curve" smooth="yes"/>
      <point x="196.821" y="25.5381" type="line"/>
      <point x="268.751" y="298.188" type="line"/>
      <point x="270.27" y="295.373"/>
      <point x="269.395" y="295.46"/>
      <point x="272.639" y="290.886" type="curve" smooth="yes"/>
      <point x="273.442" y="289.872" type="line"/>
      <point x="273.653" y="288.512" type="line" smooth="yes"/>
      <point x="274.147" y="285.304"/>
      <point x="274.523" y="279.759"/>
      <point x="272.205" y="270.975" type="curve" smooth="yes"/>
      <point x="271.044" y="266.574"/>
      <point x="268.53" y="259.695"/>
      <point x="268.071" y="257.958" type="curve" smooth="yes"/>
      <point x="205.267" y="19.8965" type="line"/>
      <point x="203.188" y="19.7354" type="line"/>
      <point x="203.153" y="19.3438"/>
      <point x="203.082" y="18.9404"/>
      <point x="202.974" y="18.5283" type="curve" smooth="yes"/>
      <point x="202.967" y="18.502" type="line"/>
      <point x="202.453" y="16.5537" type="line"/>
      <point x="204.386" y="16.5537" type="line"/>
      <point x="201.851" y="6.94824" type="line"/>
      <point x="200.145" y="7.80566" type="line"/>
      <point x="176.652" y="-81.2451" type="line"/>
      <point x="172.952" y="-76.2197" type="line"/>
      <point x="166.602" y="-81.2451" type="line"/>
      <point x="191.27" y="12.2607" type="line"/>
    </contour>
    <contour>
      <point x="73.3809" y="110.365" type="curve" smooth="yes"/>
      <point x="77.1914" y="69.5439"/>
      <point x="103.58" y="36.2822"/>
      <point x="141.991" y="24.1182" type="curve"/>
      <point x="140.963" y="24.6885"/>
      <point x="139.948" y="25.2852"/>
      <point x="138.958" y="25.9092" type="curve" smooth="yes"/>
      <point x="130.856" y="31.4629"/>
      <point x="128.453" y="36.6562"/>
      <point x="127.031" y="39.8291" type="curve" smooth="yes"/>
      <point x="109.006" y="80.0283"/>
      <point x="142.712" y="128.995"/>
      <point x="122.592" y="146.276" type="curve" smooth="yes"/>
      <point x="119.785" y="148.687"/>
      <point x="116.802" y="150.466"/>
      <point x="114.009" y="151.453" type="curve" smooth="yes"/>
      <point x="111.88" y="152.207"/>
      <point x="109.347" y="152.6"/>
      <point x="106.433" y="152.6" type="curve" smooth="yes"/>
      <point x="97.4473" y="152.6"/>
      <point x="86.0781" y="147.854"/>
      <point x="80.7627" y="140.442" type="curve" smooth="yes"/>
      <point x="79.4062" y="138.553"/>
      <point x="76.9678" y="134.429"/>
      <point x="75.1104" y="127.39" type="curve" smooth="yes"/>
      <point x="74.2129" y="123.985"/>
      <point x="72.7852" y="116.756"/>
    </contour>
    <contour>
      <point x="304.136" y="-81.2451" type="line"/>
      <point x="298.834" y="-74.7705" type="line"/>
      <point x="290.116" y="-81.2451" type="line"/>
      <point x="303.883" y="-29.0605" type="line" smooth="yes"/>
      <point x="304.694" y="-25.9883"/>
      <point x="304.979" y="-21.3877"/>
      <point x="306.889" y="-13.707" type="curve" smooth="yes"/>
      <point x="306.896" y="-13.6797" type="line" smooth="yes"/>
      <point x="306.959" y="-13.4248"/>
      <point x="307.157" y="-12.6533"/>
      <point x="307.225" y="-12.3984" type="curve" smooth="yes"/>
      <point x="307.287" y="-12.1582"/>
      <point x="307.482" y="-11.4424"/>
      <point x="307.55" y="-11.1992" type="curve" smooth="yes"/>
      <point x="307.551" y="-11.1973" type="line"/>
      <point x="307.558" y="-11.1709" type="line" smooth="yes"/>
      <point x="308.527" y="-7.71582"/>
      <point x="309.504" y="-5.09082"/>
      <point x="310.663" y="-2.53516" type="curve" smooth="yes"/>
      <point x="312.108" y="0.654297"/>
      <point x="317.203" y="7.57324"/>
      <point x="319.211" y="10.2227" type="curve" smooth="yes"/>
      <point x="320.056" y="11.3398"/>
      <point x="321.126" y="12.3672"/>
      <point x="321.657" y="12.8594" type="curve" smooth="yes"/>
      <point x="323.172" y="14.2656"/>
      <point x="324.715" y="15.4814"/>
      <point x="326.268" y="16.5537" type="curve"/>
      <point x="329.938" y="16.5537" type="line"/>
      <point x="322.587" y="-11.3057" type="line" smooth="yes"/>
      <point x="322.53" y="-11.5234"/>
      <point x="322.348" y="-12.1787"/>
      <point x="322.29" y="-12.3984" type="curve" smooth="yes"/>
      <point x="322.228" y="-12.6348"/>
      <point x="322.048" y="-13.3467"/>
      <point x="321.986" y="-13.583" type="curve" smooth="yes"/>
    </contour>
    <contour>
      <point x="283.267" y="571.27" type="line"/>
      <point x="283.363" y="571.406" type="line"/>
      <point x="288.252" y="572.48" type="line"/>
      <point x="288.431" y="572.52" type="line"/>
      <point x="312.793" y="577.703" type="line"/>
      <point x="292.207" y="553.96" type="line" smooth="yes"/>
      <point x="289.3" y="550.608"/>
      <point x="284.499" y="549.142"/>
      <point x="280.309" y="550.327" type="curve" smooth="yes"/>
      <point x="276.118" y="551.513"/>
      <point x="274.607" y="554.764"/>
      <point x="276.562" y="558.383" type="curve" smooth="yes"/>
      <point x="277.053" y="559.289"/>
      <point x="277.697" y="562.157"/>
      <point x="280.846" y="567.518" type="curve" smooth="yes"/>
      <point x="283.01" y="571.199" type="line"/>
    </contour>
    <contour>
      <point x="252.44" y="542.309" type="curve" smooth="yes"/>
      <point x="252.674" y="543.195" type="line"/>
      <point x="252.896" y="543.488" type="line"/>
      <point x="252.896" y="543.488"/>
      <point x="250.346" y="534.308"/>
      <point x="252.388" y="542.05" type="curve" smooth="yes"/>
      <point x="252.401" y="542.102"/>
      <point x="252.427" y="542.256"/>
    </contour>
    <contour>
      <point x="231.198" y="443.541" type="line"/>
      <point x="231.124" y="443.692"/>
      <point x="231.004" y="443.915"/>
      <point x="230.841" y="444.193" type="curve"/>
      <point x="230.964" y="444.879"/>
      <point x="231.101" y="445.542"/>
      <point x="231.246" y="446.14" type="curve"/>
    </contour>
    <contour>
      <point x="370.069" y="186.059" type="line"/>
      <point x="370.699" y="186.526" type="line"/>
      <point x="370.563" y="186.059" type="line"/>
    </contour>
    <contour>
      <point x="483.089" y="638.328" type="line"/>
      <point x="488.392" y="631.854" type="line"/>
      <point x="497.109" y="638.328" type="line"/>
      <point x="486.008" y="596.246" type="line"/>
      <point x="498.843" y="595.995" type="line" smooth="yes"/>
      <point x="506.772" y="595.839"/>
      <point x="514.19" y="594.606"/>
      <point x="520.525" y="592.748" type="curve" smooth="yes"/>
      <point x="527.701" y="590.643"/>
      <point x="541.115" y="585.769"/>
      <point x="546.974" y="569.918" type="curve"/>
      <point x="538.774" y="575.229"/>
      <point x="530.135" y="579.383"/>
      <point x="522.588" y="582.477" type="curve" smooth="yes"/>
      <point x="508.74" y="588.152"/>
      <point x="501.704" y="590.837"/>
      <point x="493.396" y="592.009" type="curve" smooth="yes"/>
      <point x="471.677" y="595.071" type="line"/>
      <point x="471.821" y="595.614" type="line"/>
      <point x="472.059" y="596.519" type="line"/>
    </contour>
    <contour>
      <point x="586.245" y="529.533" type="curve" smooth="yes"/>
      <point x="581.828" y="550.579"/>
      <point x="565.438" y="566.104"/>
      <point x="548.81" y="576.876" type="curve"/>
      <point x="550.091" y="573.408"/>
      <point x="551.049" y="569.416"/>
      <point x="551.55" y="564.813" type="curve" smooth="yes"/>
      <point x="552.389" y="557.097"/>
      <point x="551.808" y="550.808"/>
      <point x="551.171" y="544.682" type="curve" smooth="yes"/>
      <point x="548.527" y="519.232"/>
      <point x="537.43" y="489.711"/>
      <point x="543.496" y="479.187" type="curve" smooth="yes"/>
      <point x="543.985" y="478.336"/>
      <point x="544.604" y="477.553"/>
      <point x="545.849" y="476.802" type="curve"/>
      <point x="537.058" y="464.033" type="line"/>
      <point x="538.344" y="463.828"/>
      <point x="539.024" y="463.719"/>
      <point x="539.024" y="463.719" type="curve"/>
      <point x="541.606" y="464.169" type="line"/>
      <point x="547.815" y="470.676" type="line"/>
      <point x="547.815" y="470.676"/>
      <point x="545.869" y="476.777"/>
      <point x="548.636" y="475.604" type="curve" smooth="yes"/>
      <point x="549.553" y="475.215"/>
      <point x="553.637" y="475.215"/>
      <point x="554.231" y="475.215" type="curve" smooth="yes"/>
      <point x="555.957" y="475.215"/>
      <point x="557.638" y="475.252"/>
      <point x="560.39" y="475.373" type="curve" smooth="yes"/>
      <point x="575.79" y="476.049"/>
      <point x="582.374" y="495.856"/>
      <point x="584.653" y="504.493" type="curve" smooth="yes"/>
      <point x="585.974" y="509.501"/>
      <point x="588.125" y="520.577"/>
    </contour>
    <contour>
      <point x="293.391" y="579.908" type="curve" smooth="yes"/>
      <point x="289.15" y="578.5" type="line"/>
      <point x="290.988" y="580.479"/>
      <point x="293.092" y="582.535"/>
      <point x="295.501" y="584.647" type="curve" smooth="yes"/>
      <point x="304.292" y="592.354"/>
      <point x="316.293" y="597.775"/>
      <point x="327.777" y="597.542" type="curve" smooth="yes"/>
      <point x="328.932" y="597.518"/>
      <point x="332.026" y="596.877"/>
      <point x="332.917" y="596.512" type="curve" smooth="yes"/>
      <point x="334.711" y="595.778"/>
      <point x="337.171" y="594.152"/>
      <point x="339.762" y="592.035" type="curve"/>
      <point x="332.766" y="591.244" type="line" smooth="yes"/>
      <point x="324.989" y="590.364"/>
      <point x="312.984" y="586.219"/>
    </contour>
    <contour>
      <point x="368.418" y="638.328" type="line"/>
      <point x="357.151" y="595.614" type="line"/>
      <point x="345.168" y="595.614" type="line"/>
      <point x="356.436" y="638.328" type="line"/>
      <point x="360.846" y="632.336" type="line"/>
    </contour>
  </outline>
</glyph>
<glyph name="percent" format="2">
  <advance width="1101"/>
  <unicode hex="0025"/>
  <outline>
    <contour>
      <point x="828.303" y="612.062" type="line"/>
      <point x="827.988" y="611.536"/>
      <point x="827.869" y="611.295"/>
      <point x="827.484" y="610.588" type="curve"/>
      <point x="832.566" y="610.832" type="line" smooth="yes"/>
      <point x="833.945" y="611.289"/>
      <point x="835.317" y="611.356"/>
      <point x="836.556" y="611.024" type="curve" smooth="yes"/>
      <point x="841.75" y="611.275" type="line"/>
      <point x="841.547" y="611.081" type="line"/>
      <point x="841.862" y="609.246"/>
      <point x="841.267" y="607.12"/>
      <point x="839.776" y="605.104" type="curve"/>
      <point x="839.755" y="605.346" type="line"/>
      <point x="835.968" y="591.832" type="line"/>
      <point x="831.334" y="591.869" type="line"/>
      <point x="831.306" y="591.838" type="line"/>
      <point x="831.152" y="591.845"/>
      <point x="830.991" y="591.851"/>
      <point x="830.844" y="591.864" type="curve" smooth="yes"/>
      <point x="830.599" y="591.87" type="line"/>
      <point x="830.459" y="591.873" type="line"/>
      <point x="830.368" y="591.876" type="line"/>
      <point x="830.145" y="591.88" type="line"/>
      <point x="830.088" y="591.885" type="line"/>
      <point x="830.025" y="591.79" type="line"/>
      <point x="828.499" y="591.838" type="line"/>
      <point x="825.727" y="591.644" type="line"/>
      <point x="826.154" y="591.88" type="line"/>
      <point x="816.991" y="591.822" type="line"/>
      <point x="818.055" y="593.562" type="line"/>
      <point x="812.112" y="594.836" type="line"/>
      <point x="827.197" y="608.996" type="line"/>
    </contour>
    <contour>
      <point x="981.183" y="451.361" type="curve" smooth="yes"/>
      <point x="1015.1" y="449.141"/>
      <point x="1060.31" y="445.075"/>
      <point x="1087.14" y="417.421" type="curve" smooth="yes"/>
      <point x="1111.12" y="392.479"/>
      <point x="1114.59" y="354.947"/>
      <point x="1114.24" y="324.793" type="curve" smooth="yes"/>
      <point x="1113.85" y="290.571"/>
      <point x="1108.21" y="255.518"/>
      <point x="1099.04" y="220.778" type="curve" smooth="yes"/>
      <point x="1091.6" y="192.581"/>
      <point x="1081.69" y="164.489"/>
      <point x="1069.72" y="137.156" type="curve" smooth="yes"/>
      <point x="1050.91" y="94.5889"/>
      <point x="1001.41" y="-12.9492"/>
      <point x="899.304" y="-21.1719" type="curve" smooth="yes"/>
      <point x="882.714" y="-22.5303"/>
      <point x="865.109" y="-23.6768"/>
      <point x="847.314" y="-23.6768" type="curve" smooth="yes"/>
      <point x="805.595" y="-23.6768"/>
      <point x="761.453" y="-18.4541"/>
      <point x="729.351" y="4.50977" type="curve" smooth="yes"/>
      <point x="702.261" y="23.6074"/>
      <point x="695.188" y="51.5479"/>
      <point x="692.98" y="76.2568" type="curve" smooth="yes"/>
      <point x="690.199" y="111.53"/>
      <point x="694.711" y="148.623"/>
      <point x="704.403" y="185.365" type="curve" smooth="yes"/>
      <point x="709.758" y="205.662"/>
      <point x="716.611" y="225.914"/>
      <point x="724.829" y="245.883" type="curve" smooth="yes"/>
      <point x="739.347" y="281.142"/>
      <point x="757.372" y="314.98"/>
      <point x="779.282" y="348.516" type="curve" smooth="yes"/>
      <point x="787.101" y="360.477"/>
      <point x="794.948" y="375.692"/>
      <point x="810.929" y="391.188" type="curve" smooth="yes"/>
      <point x="831.614" y="411.246"/>
      <point x="861.203" y="429.921"/>
      <point x="896.497" y="442.144" type="curve" smooth="yes"/>
      <point x="904.988" y="445.087"/>
      <point x="922.831" y="451.42"/>
      <point x="939.52" y="452.752" type="curve" smooth="yes"/>
      <point x="943.341" y="453.059"/>
      <point x="946.953" y="453.173"/>
      <point x="950.488" y="453.173" type="curve" smooth="yes"/>
      <point x="962.185" y="453.173"/>
      <point x="972.58" y="451.925"/>
    </contour>
    <contour>
      <point x="367.169" y="25.4355" type="curve"/>
      <point x="425.101" y="25.4355" type="line"/>
      <point x="434.795" y="38.877"/>
      <point x="446.128" y="50.9561"/>
      <point x="454.84" y="62.7686" type="curve" smooth="yes"/>
      <point x="484.97" y="105.944"/>
      <point x="516.024" y="148.444"/>
      <point x="549.252" y="190.276" type="curve" smooth="yes"/>
      <point x="627.205" y="288.983"/>
      <point x="707.357" y="386.481"/>
      <point x="790.587" y="482.172" type="curve" smooth="yes"/>
      <point x="823.053" y="519.005"/>
      <point x="858.207" y="554.843"/>
      <point x="888.517" y="590.967" type="curve"/>
      <point x="845.467" y="590.967" type="line" smooth="yes"/>
      <point x="841.036" y="590.967"/>
      <point x="835.667" y="591.613"/>
      <point x="831.306" y="591.838" type="curve"/>
      <point x="831.236" y="591.75" type="line"/>
      <point x="830.025" y="591.79" type="line"/>
      <point x="801.885" y="553.541" type="line" smooth="yes"/>
      <point x="767.991" y="506.44"/>
      <point x="731.668" y="460.577"/>
      <point x="696.365" y="414.83" type="curve" smooth="yes"/>
      <point x="655.984" y="361.814"/>
      <point x="614.879" y="310.003"/>
      <point x="574.261" y="258.761" type="curve" smooth="yes"/>
      <point x="534.062" y="208.848"/>
      <point x="493.269" y="157.624"/>
      <point x="448.96" y="108.146" type="curve" smooth="yes"/>
      <point x="422.438" y="78.8613"/>
      <point x="392.918" y="52.0557"/>
    </contour>
    <contour>
      <point x="564.504" y="586.545" type="curve" smooth="yes"/>
      <point x="571.985" y="575.887"/>
      <point x="573.082" y="562.668"/>
      <point x="573.812" y="557.603" type="curve" smooth="yes"/>
      <point x="576.636" y="534.727"/>
      <point x="576.07" y="511.506"/>
      <point x="573.381" y="487.945" type="curve" smooth="yes"/>
      <point x="571.431" y="470.889"/>
      <point x="568.073" y="453.555"/>
      <point x="563.495" y="436.202" type="curve" smooth="yes"/>
      <point x="548.558" y="379.583"/>
      <point x="521.736" y="322.285"/>
      <point x="484.252" y="270.428" type="curve" smooth="yes"/>
      <point x="478.83" y="262.925"/>
      <point x="452.268" y="222.362"/>
      <point x="423.506" y="202.408" type="curve" smooth="yes"/>
      <point x="405.936" y="190.219"/>
      <point x="377.153" y="175.714"/>
      <point x="318.535" y="169.294" type="curve" smooth="yes"/>
      <point x="307.703" y="168.107"/>
      <point x="296.181" y="167.445"/>
      <point x="284.369" y="167.445" type="curve" smooth="yes"/>
      <point x="244.63" y="167.445"/>
      <point x="189.5" y="175.049"/>
      <point x="164.985" y="208.952" type="curve" smooth="yes"/>
      <point x="150.14" y="229.486"/>
      <point x="131.956" y="272.193"/>
      <point x="155.793" y="362.545" type="curve" smooth="yes"/>
      <point x="158.662" y="373.423"/>
      <point x="161.874" y="383.921"/>
      <point x="165.165" y="393.886" type="curve" smooth="yes"/>
      <point x="174.66" y="422.554"/>
      <point x="181.85" y="454.811"/>
      <point x="196.474" y="487.952" type="curve" smooth="yes"/>
      <point x="208.469" y="515.019"/>
      <point x="227.395" y="539.815"/>
      <point x="242.673" y="560.424" type="curve" smooth="yes"/>
      <point x="259.125" y="582.27"/>
      <point x="282.985" y="610.961"/>
      <point x="319.591" y="626.677" type="curve" smooth="yes"/>
      <point x="348.374" y="638.904"/>
      <point x="374.751" y="639.004"/>
      <point x="396.707" y="641.195" type="curve" smooth="yes"/>
      <point x="405.057" y="642.043"/>
      <point x="413.485" y="642.483"/>
      <point x="421.934" y="642.483" type="curve" smooth="yes"/>
      <point x="473.364" y="642.483"/>
      <point x="537.98" y="626.002"/>
    </contour>
  </outline>
</glyph>
<glyph name="quotesingle" format="2">
  <advance width="306"/>
  <unicode hex="0027"/>
  <outline>
    <contour>
      <point x="280.503" y="667.77" type="line" smooth="yes"/>
      <point x="286.196" y="679.014"/>
      <point x="289.858" y="688.735"/>
      <point x="298.691" y="699.596" type="curve" smooth="yes"/>
      <point x="300.013" y="701.218"/>
      <point x="301.317" y="702.926"/>
      <point x="303.386" y="704.809" type="curve" smooth="yes"/>
      <point x="305.859" y="707.062"/>
      <point x="314.32" y="716.604"/>
      <point x="331.99" y="722.596" type="curve" smooth="yes"/>
      <point x="342.161" y="726.04"/>
      <point x="352.666" y="727.188"/>
      <point x="357.777" y="727.874" type="curve" smooth="yes"/>
      <point x="373.631" y="730.009"/>
      <point x="388.978" y="731.591"/>
      <point x="404.716" y="731.591" type="curve" smooth="yes"/>
      <point x="414.152" y="731.591"/>
      <point x="423.686" y="730.996"/>
      <point x="433.415" y="729.68" type="curve" smooth="yes"/>
      <point x="436.785" y="729.232"/>
      <point x="460.617" y="727.804"/>
      <point x="471.347" y="716.205" type="curve" smooth="yes"/>
      <point x="472.43" y="715.029"/>
      <point x="474.804" y="711.676"/>
      <point x="475.769" y="709.436" type="curve" smooth="yes"/>
      <point x="478.668" y="702.702"/>
      <point x="477.838" y="694.878"/>
      <point x="476.178" y="688.588" type="curve" smooth="yes"/>
      <point x="473.734" y="679.325"/>
      <point x="469.073" y="670.459"/>
      <point x="467.57" y="666.98" type="curve" smooth="yes"/>
      <point x="455.152" y="638.256"/>
      <point x="436.836" y="612.671"/>
      <point x="416.452" y="589.589" type="curve" smooth="yes"/>
      <point x="368.767" y="535.593"/>
      <point x="317.415" y="486.455"/>
      <point x="271.661" y="435.605" type="curve" smooth="yes"/>
      <point x="226.938" y="386.515" type="line" smooth="yes"/>
      <point x="221.421" y="379.896"/>
      <point x="217.45" y="374.467"/>
      <point x="211.472" y="368.421" type="curve" smooth="yes"/>
      <point x="211.096" y="368.041"/>
      <point x="209.193" y="366.155"/>
      <point x="207.598" y="364.732" type="curve" smooth="yes"/>
      <point x="207.147" y="364.33"/>
      <point x="204.85" y="362.34"/>
      <point x="202.917" y="360.896" type="curve" smooth="yes"/>
      <point x="202.061" y="360.257"/>
      <point x="199.176" y="358.232"/>
      <point x="196.929" y="356.964" type="curve" smooth="yes"/>
      <point x="189.602" y="352.836"/>
      <point x="182.302" y="351.707"/>
      <point x="176.592" y="351.707" type="curve" smooth="yes"/>
      <point x="175.714" y="351.707"/>
      <point x="171.63" y="351.923"/>
      <point x="171.104" y="351.923" type="curve" smooth="yes"/>
      <point x="114.879" y="351.923" type="line"/>
      <point x="126.345" y="379.821" type="line" smooth="yes"/>
      <point x="137.695" y="407.441"/>
      <point x="154.167" y="432.538"/>
      <point x="165.739" y="454.183" type="curve" smooth="yes"/>
    </contour>
  </outline>
</glyph>
<glyph name="parenleft" format="2">
  <advance width="385"/>
  <unicode hex="0028"/>
  <outline>
    <contour>
      <point x="100.727" y="-70.377" type="curve" smooth="yes"/>
      <point x="75.0781" y="1.12793"/>
      <point x="72.0449" y="82.0684"/>
      <point x="81.7607" y="163.221" type="curve" smooth="yes"/>
      <point x="85.6396" y="195.617"/>
      <point x="91.7988" y="228.251"/>
      <point x="100.378" y="260.771" type="curve" smooth="yes"/>
      <point x="132.631" y="383.025"/>
      <point x="199.43" y="504.23"/>
      <point x="307.306" y="602.651" type="curve" smooth="yes"/>
      <point x="349.999" y="641.604"/>
      <point x="396.001" y="675.081"/>
      <point x="445.771" y="703.052" type="curve" smooth="yes"/>
      <point x="446.277" y="703.332"/>
      <point x="485.653" y="728.511"/>
      <point x="511.143" y="732.823" type="curve" smooth="yes"/>
      <point x="526.914" y="735.49" type="line"/>
      <point x="552.977" y="678.348" type="line"/>
      <point x="528.162" y="664.369" type="line" smooth="yes"/>
      <point x="506.027" y="651.898"/>
      <point x="486.062" y="639.45"/>
      <point x="467.645" y="624.355" type="curve" smooth="yes"/>
      <point x="373.399" y="547.105"/>
      <point x="328.227" y="441.359"/>
      <point x="296.132" y="344.778" type="curve" smooth="yes"/>
      <point x="286.227" y="314.967"/>
      <point x="277.274" y="284.956"/>
      <point x="269.363" y="254.97" type="curve" smooth="yes"/>
      <point x="264.406" y="236.179"/>
      <point x="259.857" y="217.399"/>
      <point x="255.739" y="198.684" type="curve" smooth="yes"/>
      <point x="239.946" y="126.907"/>
      <point x="223.646" y="58.6855"/>
      <point x="228.104" y="-5.35156" type="curve" smooth="yes"/>
      <point x="231.849" y="-59.1436"/>
      <point x="245.734" y="-99.4795"/>
      <point x="265.379" y="-131.277" type="curve" smooth="yes"/>
      <point x="272.703" y="-143.131"/>
      <point x="282.072" y="-154.556"/>
      <point x="292.646" y="-164.468" type="curve" smooth="yes"/>
      <point x="295.528" y="-167.17"/>
      <point x="302.85" y="-171.263"/>
      <point x="307.582" y="-177.466" type="curve" smooth="yes"/>
      <point x="310.748" y="-181.616"/>
      <point x="312.285" y="-185.899"/>
      <point x="312.784" y="-190.032" type="curve" smooth="yes"/>
      <point x="313.021" y="-191.997"/>
      <point x="312.943" y="-197.411"/>
      <point x="311.929" y="-200.564" type="curve" smooth="yes"/>
      <point x="305.943" y="-219.182"/>
      <point x="291.634" y="-229.775"/>
      <point x="285.641" y="-237.319" type="curve" smooth="yes"/>
      <point x="273.39" y="-254.955" type="line"/>
      <point x="255.282" y="-251.568" type="line" smooth="yes"/>
      <point x="230.772" y="-246.983"/>
      <point x="203.33" y="-219.966"/>
      <point x="199.933" y="-217.182" type="curve" smooth="yes"/>
      <point x="153.139" y="-178.82"/>
      <point x="121.133" y="-127.271"/>
    </contour>
  </outline>
</glyph>
<glyph name="comma" format="2">
  <advance width="269"/>
  <unicode hex="002C"/>
  <outline>
    <contour>
      <point x="76.8926" y="59.4316" type="line"/>
      <point x="108.099" y="118.466" type="line" smooth="yes"/>
      <point x="114.24" y="129.872"/>
      <point x="120.276" y="145.693"/>
      <point x="134.833" y="160.841" type="curve" smooth="yes"/>
      <point x="163.897" y="191.085"/>
      <point x="198.591" y="194.229"/>
      <point x="222.757" y="194.229" type="curve" smooth="yes"/>
      <point x="234.765" y="194.229"/>
      <point x="245.768" y="193.495"/>
      <point x="254.819" y="193.493" type="curve" smooth="yes"/>
      <point x="255.499" y="193.493" type="line" smooth="yes"/>
      <point x="255.904" y="193.493"/>
      <point x="257.12" y="193.497"/>
      <point x="257.524" y="193.497" type="curve" smooth="yes"/>
      <point x="257.651" y="193.497"/>
      <point x="258.067" y="193.496"/>
      <point x="258.194" y="193.495" type="curve" smooth="yes"/>
      <point x="271.622" y="193.356"/>
      <point x="288.253" y="193.283"/>
      <point x="299.758" y="183.984" type="curve" smooth="yes"/>
      <point x="303.868" y="180.661"/>
      <point x="306.854" y="176.775"/>
      <point x="308.191" y="172.064" type="curve" smooth="yes"/>
      <point x="310.396" y="164.296"/>
      <point x="310.516" y="164.202"/>
      <point x="310.765" y="158.59" type="curve" smooth="yes"/>
      <point x="311.044" y="152.269"/>
      <point x="310.161" y="145.926"/>
      <point x="308.56" y="139.854" type="curve" smooth="yes"/>
      <point x="300.716" y="110.123"/>
      <point x="278.726" y="86.3105"/>
      <point x="249.614" y="53.6016" type="curve" smooth="yes"/>
      <point x="64.168" y="-149.251" type="line" smooth="yes"/>
      <point x="56.2695" y="-158.553"/>
      <point x="54.7354" y="-160.59"/>
      <point x="49.8418" y="-165.319" type="curve" smooth="yes"/>
      <point x="49.4473" y="-165.702"/>
      <point x="47.4473" y="-167.594"/>
      <point x="45.7705" y="-169.015" type="curve" smooth="yes"/>
      <point x="45.3027" y="-169.411"/>
      <point x="42.9277" y="-171.366"/>
      <point x="40.9375" y="-172.783" type="curve" smooth="yes"/>
      <point x="40.1406" y="-173.352"/>
      <point x="37.2881" y="-175.269"/>
      <point x="35.1104" y="-176.475" type="curve" smooth="yes"/>
      <point x="18.541" y="-185.655"/>
      <point x="1.7334" y="-186.729"/>
      <point x="-11.207" y="-186.729" type="curve" smooth="yes"/>
      <point x="-11.543" y="-186.729"/>
      <point x="-12.5547" y="-186.728"/>
      <point x="-12.8906" y="-186.727" type="curve" smooth="yes"/>
      <point x="-13.7393" y="-186.727"/>
      <point x="-19.6729" y="-186.683"/>
      <point x="-21.3711" y="-186.683" type="curve" smooth="yes"/>
      <point x="-47.9346" y="-186.683" type="line"/>
      <point x="-38.6533" y="-160.222" type="line" smooth="yes"/>
      <point x="-28.9971" y="-132.696"/>
      <point x="-15.2959" y="-114.702"/>
      <point x="-1.63184" y="-88.5039" type="curve" smooth="yes"/>
    </contour>
  </outline>
</glyph>
<glyph name="hyphen" format="2">
  <advance width="499"/>
  <unicode hex="002D"/>
  <outline>
    <contour>
      <point x="450.873" y="408.878" type="line"/>
      <point x="489.762" y="407.239" type="line"/>
      <point x="494.324" y="381.507" type="line"/>
      <point x="495.825" y="350.308" type="line"/>
      <point x="503.754" y="206.528" type="line"/>
      <point x="164.553" y="206.538" type="line"/>
      <point x="125.236" y="208.148" type="line"/>
      <point x="123.095" y="222.571" type="line"/>
      <point x="121.424" y="234.114" type="line"/>
      <point x="119.658" y="264.038" type="line"/>
      <point x="111.653" y="408.889" type="line"/>
    </contour>
  </outline>
</glyph>
<glyph name="slash" format="2">
  <advance width="499"/>
  <unicode hex="002F"/>
  <outline>
    <contour>
      <point x="133.908" y="137.105" type="curve" smooth="yes"/>
      <point x="386.097" y="471.666" type="line"/>
      <point x="484.014" y="601.139" type="line"/>
      <point x="512.26" y="638.731" type="line" smooth="yes"/>
      <point x="517.466" y="646.165"/>
      <point x="516.927" y="645.53"/>
      <point x="519.158" y="648.48" type="curve" smooth="yes"/>
      <point x="519.643" y="649.119"/>
      <point x="521.471" y="651.434"/>
      <point x="522.42" y="652.541" type="curve" smooth="yes"/>
      <point x="523.538" y="653.844"/>
      <point x="525.884" y="656.304"/>
      <point x="526.775" y="657.161" type="curve" smooth="yes"/>
      <point x="528.479" y="658.797"/>
      <point x="531.573" y="661.312"/>
      <point x="532.852" y="662.226" type="curve" smooth="yes"/>
      <point x="533.916" y="662.989" type="line"/>
      <point x="535.098" y="663.431" type="line" smooth="yes"/>
      <point x="537.296" y="664.255"/>
      <point x="546.357" y="668.947"/>
      <point x="550.717" y="669.77" type="curve" smooth="yes"/>
      <point x="552.985" y="670.197"/>
      <point x="556.478" y="670.735"/>
      <point x="561.978" y="670.735" type="curve" smooth="yes"/>
      <point x="568.244" y="670.735"/>
      <point x="575.847" y="669.86"/>
      <point x="577.413" y="669.86" type="curve" smooth="yes"/>
      <point x="683.186" y="669.86" type="line"/>
      <point x="666.068" y="638.79" type="line" smooth="yes"/>
      <point x="654.625" y="618.013"/>
      <point x="642.411" y="606.821"/>
      <point x="630.389" y="590.489" type="curve" smooth="yes"/>
      <point x="553.656" y="488.803" type="line" smooth="yes"/>
      <point x="474.461" y="384.639"/>
      <point x="393.622" y="280.974"/>
      <point x="317.909" y="176.305" type="curve" smooth="yes"/>
      <point x="282.844" y="127.826"/>
      <point x="246.211" y="80.5996"/>
      <point x="210.335" y="33.6309" type="curve" smooth="yes"/>
      <point x="180.68" y="-5.82129" type="line" smooth="yes"/>
      <point x="174.863" y="-14.1562"/>
      <point x="175.522" y="-13.3691"/>
      <point x="173.049" y="-16.6621" type="curve" smooth="yes"/>
      <point x="172.561" y="-17.3135"/>
      <point x="170.601" y="-19.8154"/>
      <point x="169.579" y="-21.0137" type="curve" smooth="yes"/>
      <point x="168.432" y="-22.3574"/>
      <point x="165.947" y="-24.9902"/>
      <point x="164.993" y="-25.9121" type="curve" smooth="yes"/>
      <point x="163.259" y="-27.5889"/>
      <point x="159.98" y="-30.2734"/>
      <point x="158.61" y="-31.2539" type="curve" smooth="yes"/>
      <point x="157.543" y="-32.0166" type="line"/>
      <point x="156.36" y="-32.4609" type="line" smooth="yes"/>
      <point x="154.163" y="-33.2832"/>
      <point x="145.103" y="-37.9746"/>
      <point x="140.743" y="-38.7959" type="curve" smooth="yes"/>
      <point x="138.476" y="-39.2236"/>
      <point x="134.982" y="-39.7637"/>
      <point x="129.481" y="-39.7637" type="curve" smooth="yes"/>
      <point x="123.216" y="-39.7637"/>
      <point x="115.613" y="-38.8887"/>
      <point x="114.047" y="-38.8887" type="curve" smooth="yes"/>
      <point x="8.24219" y="-38.8887" type="line"/>
      <point x="25.4023" y="-7.79395" type="line" smooth="yes"/>
      <point x="34.9102" y="9.43262"/>
      <point x="46.5801" y="20.8525"/>
      <point x="55.5586" y="33.2822" type="curve" smooth="yes"/>
      <point x="81.4111" y="69.0781"/>
      <point x="108.952" y="103.157"/>
    </contour>
  </outline>
</glyph>
<glyph name="two" format="2">
  <advance width="597"/>
  <unicode hex="0032"/>
  <outline>
    <contour>
      <point x="213.602" y="77.3994" type="curve" smooth="yes"/>
      <point x="209.612" y="77.3994"/>
      <point x="207.196" y="80.5156"/>
      <point x="208.209" y="84.3574" type="curve" smooth="yes"/>
      <point x="209.224" y="88.1973"/>
      <point x="213.284" y="91.3154"/>
      <point x="217.273" y="91.3154" type="curve" smooth="yes"/>
      <point x="221.263" y="91.3154"/>
      <point x="223.678" y="88.1973"/>
      <point x="222.664" y="84.3574" type="curve" smooth="yes"/>
      <point x="221.65" y="80.5156"/>
      <point x="217.591" y="77.3994"/>
    </contour>
    <contour>
      <point x="169.2" y="457.693" type="line" smooth="yes"/>
      <point x="189.028" y="491.343"/>
      <point x="213.013" y="518.131"/>
      <point x="238.788" y="544.511" type="curve" smooth="yes"/>
      <point x="252.18" y="558.216"/>
      <point x="259.743" y="570.036"/>
      <point x="277.24" y="584.169" type="curve" smooth="yes"/>
      <point x="295.792" y="598.825"/>
      <point x="331.261" y="619.962"/>
      <point x="387.327" y="636.369" type="curve" smooth="yes"/>
      <point x="425.351" y="647.495"/>
      <point x="467.437" y="653.761"/>
      <point x="508.019" y="653.761" type="curve" smooth="yes"/>
      <point x="535.076" y="653.761"/>
      <point x="575.697" y="650.97"/>
      <point x="611.702" y="635.997" type="curve" smooth="yes"/>
      <point x="685.359" y="604.849"/>
      <point x="704.242" y="532.044"/>
      <point x="685.818" y="462.217" type="curve" smooth="yes"/>
      <point x="684.059" y="455.544"/>
      <point x="681.955" y="448.876"/>
      <point x="679.511" y="442.241" type="curve" smooth="yes"/>
      <point x="649.787" y="361.604"/>
      <point x="572.847" y="301.748"/>
      <point x="491.913" y="251.912" type="curve" smooth="yes"/>
      <point x="452.384" y="227.572"/>
      <point x="412.699" y="201.293"/>
      <point x="371.018" y="176.332" type="curve" smooth="yes"/>
      <point x="341.353" y="158.969" type="line"/>
      <point x="345.408" y="159.054"/>
      <point x="349.445" y="159.093"/>
      <point x="353.462" y="159.093" type="curve" smooth="yes"/>
      <point x="367.528" y="159.093"/>
      <point x="381.352" y="158.596"/>
      <point x="394.901" y="157.78" type="curve" smooth="yes"/>
      <point x="415.75" y="156.524"/>
      <point x="436.15" y="154.042"/>
      <point x="454.383" y="154.042" type="curve" smooth="yes"/>
      <point x="461.107" y="154.042"/>
      <point x="467.517" y="154.362"/>
      <point x="473.444" y="155.076" type="curve" smooth="yes"/>
      <point x="479.444" y="155.802"/>
      <point x="494.62" y="160.06"/>
      <point x="507.92" y="171.426" type="curve" smooth="yes"/>
      <point x="511.114" y="174.155"/>
      <point x="511.572" y="175.785"/>
      <point x="516.929" y="181.257" type="curve" smooth="yes"/>
      <point x="517.515" y="181.857"/>
      <point x="519.835" y="184.135"/>
      <point x="521.225" y="185.372" type="curve" smooth="yes"/>
      <point x="522.693" y="186.681"/>
      <point x="525.766" y="189.114"/>
      <point x="527.04" y="190.018" type="curve" smooth="yes"/>
      <point x="529.025" y="191.425"/>
      <point x="533.039" y="193.893"/>
      <point x="534.522" y="194.677" type="curve" smooth="yes"/>
      <point x="543.544" y="199.454"/>
      <point x="551.382" y="199.821"/>
      <point x="555.797" y="199.821" type="curve" smooth="yes"/>
      <point x="560.393" y="199.821"/>
      <point x="562.6" y="199.477"/>
      <point x="563.365" y="199.477" type="curve" smooth="yes"/>
      <point x="629.668" y="199.477" type="line"/>
      <point x="516.133" y="-4.81836" type="line"/>
      <point x="36.3242" y="-4.81836" type="line"/>
      <point x="37.8193" y="0.847656"/>
      <point x="39.998" y="15.0107"/>
      <point x="42.2402" y="23.5098" type="curve" smooth="yes"/>
      <point x="45.7881" y="36.958"/>
      <point x="50.1211" y="44.2871"/>
      <point x="52.543" y="47.4785" type="curve" smooth="yes"/>
      <point x="54.5244" y="50.0898"/>
      <point x="56.249" y="53.2598"/>
      <point x="63.7207" y="59.835" type="curve" smooth="yes"/>
      <point x="64.0811" y="60.1523"/>
      <point x="65.1572" y="61.124"/>
      <point x="67.4053" y="62.9287" type="curve" smooth="yes"/>
      <point x="76.791" y="70.459"/>
      <point x="87.2764" y="76.5742"/>
      <point x="92.0654" y="80.2314" type="curve" smooth="yes"/>
      <point x="119.208" y="100.951"/>
      <point x="146.231" y="120.591"/>
      <point x="172.966" y="140.572" type="curve" smooth="yes"/>
      <point x="255.846" y="202.065"/>
      <point x="337.472" y="257.774"/>
      <point x="402.822" y="325.951" type="curve" smooth="yes"/>
      <point x="429.445" y="353.724"/>
      <point x="455.921" y="381.829"/>
      <point x="467.101" y="407.076" type="curve" smooth="yes"/>
      <point x="469.742" y="413.041"/>
      <point x="471.918" y="419.177"/>
      <point x="473.536" y="425.313" type="curve" smooth="yes"/>
      <point x="478.459" y="443.974"/>
      <point x="478.063" y="462.443"/>
      <point x="471.424" y="477.024" type="curve" smooth="yes"/>
      <point x="460.369" y="501.304"/>
      <point x="430.508" y="518.185"/>
      <point x="396.03" y="518.185" type="curve" smooth="yes"/>
      <point x="386.052" y="518.185"/>
      <point x="375.81" y="516.761"/>
      <point x="365.452" y="513.751" type="curve" smooth="yes"/>
      <point x="326.72" y="502.498"/>
      <point x="290.948" y="467.324"/>
      <point x="251.146" y="422.034" type="curve" smooth="yes"/>
      <point x="235.244" y="403.725" type="line"/>
      <point x="155.992" y="435.276" type="line"/>
    </contour>
  </outline>
</glyph>
<glyph name="five" format="2">
  <advance width="597"/>
  <unicode hex="0035"/>
  <outline>
    <contour>
      <point x="156.807" y="321.907" type="line" smooth="yes"/>
      <point x="192.104" y="396.547"/>
      <point x="232.359" y="469.799"/>
      <point x="268.293" y="542.479" type="curve" smooth="yes"/>
      <point x="299.207" y="599.921" type="line" smooth="yes"/>
      <point x="300.852" y="603.388"/>
      <point x="304.529" y="612.688"/>
      <point x="310.277" y="620.186" type="curve" smooth="yes"/>
      <point x="313.655" y="624.593"/>
      <point x="318.99" y="630.013"/>
      <point x="326.871" y="633.993" type="curve" smooth="yes"/>
      <point x="331.787" y="636.479"/>
      <point x="338.735" y="639.865"/>
      <point x="354.208" y="639.865" type="curve" smooth="yes"/>
      <point x="363.859" y="639.865"/>
      <point x="363.729" y="639.374"/>
      <point x="366.142" y="639.374" type="curve" smooth="yes"/>
      <point x="563.459" y="639.374" type="line" smooth="yes"/>
      <point x="576.912" y="639.374"/>
      <point x="589.641" y="638.649"/>
      <point x="601.387" y="638.649" type="curve" smooth="yes"/>
      <point x="606.769" y="638.649"/>
      <point x="611.713" y="638.677"/>
      <point x="616.324" y="639.088" type="curve"/>
      <point x="616.548" y="639.332"/>
      <point x="616.829" y="639.621"/>
      <point x="617.17" y="639.963" type="curve" smooth="yes"/>
      <point x="621.147" y="643.941"/>
      <point x="625.913" y="649.856"/>
      <point x="633.721" y="655.711" type="curve"/>
      <point x="634.911" y="657.161"/>
      <point x="636.803" y="659.389"/>
      <point x="639.396" y="661.955" type="curve" smooth="yes"/>
      <point x="641.56" y="664.133" type="line"/>
      <point x="644.345" y="664.669" type="line" smooth="yes"/>
      <point x="650.51" y="665.86"/>
      <point x="657.008" y="666.099"/>
      <point x="662.033" y="666.099" type="curve" smooth="yes"/>
      <point x="663.008" y="666.099"/>
      <point x="667.41" y="665.861"/>
      <point x="668.053" y="665.861" type="curve" smooth="yes"/>
      <point x="726.684" y="665.861" type="line"/>
      <point x="646.885" y="498.776" type="line"/>
      <point x="371.311" y="498.776" type="line"/>
      <point x="365.46" y="487.584"/>
      <point x="359.048" y="476.534"/>
      <point x="352.51" y="465.724" type="curve"/>
      <point x="364.957" y="467.21"/>
      <point x="379.267" y="468.186"/>
      <point x="395.419" y="468.186" type="curve" smooth="yes"/>
      <point x="400.688" y="468.186"/>
      <point x="405.791" y="468.076"/>
      <point x="410.742" y="467.906" type="curve" smooth="yes"/>
      <point x="526.902" y="463.907"/>
      <point x="609.995" y="405.205"/>
      <point x="615.981" y="310.866" type="curve" smooth="yes"/>
      <point x="617.409" y="288.349"/>
      <point x="614.547" y="263.907"/>
      <point x="608.04" y="239.242" type="curve" smooth="yes"/>
      <point x="597.886" y="200.752"/>
      <point x="578.893" y="161.455"/>
      <point x="551.167" y="128.268" type="curve" smooth="yes"/>
      <point x="481.073" y="44.3672"/>
      <point x="343.819" y="-14.4385"/>
      <point x="225.835" y="-15.4463" type="curve" smooth="yes"/>
      <point x="221.266" y="-15.4863"/>
      <point x="216.684" y="-15.5225"/>
      <point x="212.07" y="-15.5225" type="curve" smooth="yes"/>
      <point x="175.004" y="-15.5225"/>
      <point x="136.573" y="-13.8008"/>
      <point x="105.387" y="-1.38867" type="curve" smooth="yes"/>
      <point x="90.3408" y="4.68164"/>
      <point x="79.7188" y="13.0234"/>
      <point x="69.7598" y="19.5225" type="curve" smooth="yes"/>
      <point x="54.0938" y="29.7461" type="line"/>
      <point x="107.465" y="112.931" type="line"/>
      <point x="126.997" y="107.982" type="line" smooth="yes"/>
      <point x="144.6" y="103.521"/>
      <point x="152.259" y="96.7568"/>
      <point x="167.168" y="92.6943" type="curve" smooth="yes"/>
      <point x="191.125" y="86.2207"/>
      <point x="218.03" y="82.2422"/>
      <point x="244.517" y="82.2422" type="curve" smooth="yes"/>
      <point x="262.887" y="82.2422"/>
      <point x="281.021" y="84.0781"/>
      <point x="298.048" y="88.1016" type="curve" smooth="yes"/>
      <point x="343.085" y="98.7422"/>
      <point x="399.327" y="136.125"/>
      <point x="426.996" y="166.702" type="curve" smooth="yes"/>
      <point x="427.847" y="167.785"/>
      <point x="428.079" y="169.394"/>
      <point x="428.532" y="171.112" type="curve" smooth="yes"/>
      <point x="429.805" y="175.935"/>
      <point x="429.814" y="178.923"/>
      <point x="430.957" y="190.309" type="curve" smooth="yes"/>
      <point x="434.119" y="221.768"/>
      <point x="426.811" y="250.244"/>
      <point x="403.523" y="271.362" type="curve" smooth="yes"/>
      <point x="387.221" y="286.144"/>
      <point x="359.786" y="292.626"/>
      <point x="326.743" y="292.626" type="curve" smooth="yes"/>
      <point x="309.683" y="292.626"/>
      <point x="291.27" y="290.626"/>
      <point x="273.657" y="287.527" type="curve" smooth="yes"/>
      <point x="262.227" y="285.518"/>
      <point x="250.644" y="283.042"/>
      <point x="239.647" y="279.813" type="curve" smooth="yes"/>
      <point x="238.43" y="279.457"/>
      <point x="232.131" y="277.218"/>
      <point x="230.893" y="276.808" type="curve" smooth="yes"/>
      <point x="230.103" y="276.547"/>
      <point x="226.641" y="275.473"/>
      <point x="225.202" y="275.08" type="curve" smooth="yes"/>
      <point x="224.058" y="274.766"/>
      <point x="219.886" y="273.782"/>
      <point x="217.914" y="273.444" type="curve" smooth="yes"/>
      <point x="215.281" y="272.993"/>
      <point x="210.377" y="272.594"/>
      <point x="208.749" y="272.594" type="curve" smooth="yes"/>
      <point x="208.557" y="272.594" type="line" smooth="yes"/>
      <point x="195.67" y="272.701"/>
      <point x="193.403" y="276.748"/>
      <point x="186.172" y="281.336" type="curve" smooth="yes"/>
      <point x="148.96" y="304.948" type="line"/>
    </contour>
  </outline>
</glyph>
<glyph name="six" format="2">
  <advance width="639"/>
  <unicode hex="0036"/>
  <outline>
    <contour>
      <point x="378" y="329.7" type="line"/>
      <point x="354.9" y="344.4" type="line"/>
      <point x="322.918" y="348.239" type="line"/>
      <point x="300.862" y="332.843" type="line"/>
      <point x="252" y="273" type="line"/>
      <point x="235.2" y="220.5" type="line"/>
      <point x="224.7" y="165.9" type="line"/>
      <point x="226.8" y="119.7" type="line"/>
      <point x="261.275" y="97.2158" type="line"/>
      <point x="283.768" y="81.6455" type="line"/>
      <point x="310.525" y="81.6455" type="line"/>
      <point x="320.647" y="86.3252" type="line"/>
      <point x="367.5" y="138.6" type="line"/>
      <point x="394.8" y="226.8" type="line"/>
      <point x="397.82" y="273.851" type="line"/>
    </contour>
    <contour>
      <point x="346.711" y="423.439" type="curve"/>
      <point x="369.065" y="429.492"/>
      <point x="391.756" y="433.505"/>
      <point x="414.461" y="433.505" type="curve" smooth="yes"/>
      <point x="414.872" y="433.505"/>
      <point x="416.101" y="433.499"/>
      <point x="416.509" y="433.494" type="curve" smooth="yes"/>
      <point x="439.178" y="433.244"/>
      <point x="461.611" y="429.559"/>
      <point x="481.172" y="422.521" type="curve" smooth="yes"/>
      <point x="564.09" y="391.529"/>
      <point x="582.133" y="301.729"/>
      <point x="559.376" y="216.798" type="curve" smooth="yes"/>
      <point x="553.561" y="195.094"/>
      <point x="545.062" y="173.569"/>
      <point x="534.07" y="153.183" type="curve" smooth="yes"/>
      <point x="511.289" y="110.933"/>
      <point x="477.936" y="71.9893"/>
      <point x="437.874" y="41.1729" type="curve" smooth="yes"/>
      <point x="402.731" y="15.1641"/>
      <point x="361.644" y="-6.375"/>
      <point x="317.548" y="-13.9443" type="curve" smooth="yes"/>
      <point x="303.504" y="-16.4277"/>
      <point x="289.861" y="-17.6162"/>
      <point x="276.717" y="-17.6162" type="curve" smooth="yes"/>
      <point x="197.373" y="-17.6162"/>
      <point x="134.418" y="24.4961"/>
      <point x="109.287" y="87.0664" type="curve" smooth="yes"/>
      <point x="94.2715" y="124.933"/>
      <point x="92.6758" y="171.208"/>
      <point x="99.4639" y="214.955" type="curve" smooth="yes"/>
      <point x="101.845" y="230.302"/>
      <point x="105.248" y="245.904"/>
      <point x="109.439" y="261.541" type="curve" smooth="yes"/>
      <point x="127.881" y="330.367"/>
      <point x="163.067" y="400.707"/>
      <point x="215.269" y="460.583" type="curve" smooth="yes"/>
      <point x="250.895" y="501.447"/>
      <point x="302.949" y="543.253"/>
      <point x="364.865" y="579.797" type="curve" smooth="yes"/>
      <point x="422.732" y="613.951"/>
      <point x="506.673" y="648.181"/>
      <point x="588.997" y="648.181" type="curve" smooth="yes"/>
      <point x="603.118" y="648.181"/>
      <point x="616.794" y="646.975"/>
      <point x="629.969" y="644.407" type="curve" smooth="yes"/>
      <point x="638.153" y="642.812" type="line"/>
      <point x="635.856" y="634.327" type="line" smooth="yes"/>
      <point x="632.883" y="623.345"/>
      <point x="629.289" y="616.498"/>
      <point x="626.772" y="612.344" type="curve" smooth="yes"/>
      <point x="605.57" y="577.346"/>
      <point x="559.438" y="582.329"/>
      <point x="534.335" y="570.125" type="curve" smooth="yes"/>
      <point x="515.774" y="561.103"/>
      <point x="497.843" y="555.511"/>
      <point x="482.653" y="547.389" type="curve" smooth="yes"/>
      <point x="439.906" y="524.533"/>
      <point x="401.271" y="492.498"/>
      <point x="371.669" y="456.475" type="curve" smooth="yes"/>
      <point x="361.306" y="443.864"/>
      <point x="352.433" y="433.013"/>
    </contour>
  </outline>
</glyph>
<glyph name="eight" format="2">
  <advance width="597"/>
  <unicode hex="0038"/>
  <outline>
    <contour>
      <point x="211.126" y="301.77" type="curve"/>
      <point x="186.869" y="328.213"/>
      <point x="177.634" y="359.562"/>
      <point x="177.647" y="394.817" type="curve" smooth="yes"/>
      <point x="177.656" y="412.121"/>
      <point x="180.091" y="431.199"/>
      <point x="185.185" y="450.501" type="curve" smooth="yes"/>
      <point x="190.179" y="469.434"/>
      <point x="197.675" y="488.619"/>
      <point x="208.503" y="506.471" type="curve" smooth="yes"/>
      <point x="263.749" y="597.549"/>
      <point x="382.69" y="648.251"/>
      <point x="491.59" y="648.251" type="curve" smooth="yes"/>
      <point x="533.258" y="648.251"/>
      <point x="573.393" y="640.895"/>
      <point x="607.69" y="625.059" type="curve" smooth="yes"/>
      <point x="640.892" y="609.73"/>
      <point x="665.445" y="584.848"/>
      <point x="675.948" y="553.938" type="curve" smooth="yes"/>
      <point x="684.064" y="530.049"/>
      <point x="684.054" y="502.016"/>
      <point x="676.652" y="473.964" type="curve" smooth="yes"/>
      <point x="668.577" y="443.357"/>
      <point x="651.412" y="411.998"/>
      <point x="623.786" y="386.895" type="curve" smooth="yes"/>
      <point x="608.404" y="372.919"/>
      <point x="592.164" y="360.882"/>
      <point x="575.157" y="350.14" type="curve"/>
      <point x="583.611" y="341.696"/>
      <point x="589.6" y="333.223"/>
      <point x="592.853" y="328.913" type="curve" smooth="yes"/>
      <point x="622.368" y="289.812"/>
      <point x="628.32" y="236.926"/>
      <point x="614.443" y="184.33" type="curve" smooth="yes"/>
      <point x="603.453" y="142.669"/>
      <point x="579.855" y="100.72"/>
      <point x="544.363" y="65.5947" type="curve" smooth="yes"/>
      <point x="478.686" y="0.746094"/>
      <point x="379.604" y="-25.0088"/>
      <point x="292.235" y="-25.0088" type="curve" smooth="yes"/>
      <point x="271.604" y="-25.0088"/>
      <point x="251.434" y="-23.3916"/>
      <point x="231.857" y="-20.5908" type="curve" smooth="yes"/>
      <point x="161.38" y="-10.7246"/>
      <point x="106.91" y="22.8916"/>
      <point x="91.4463" y="79.5098" type="curve" smooth="yes"/>
      <point x="85.3955" y="101.659"/>
      <point x="86.5225" y="125.73"/>
      <point x="92.8027" y="149.537" type="curve" smooth="yes"/>
      <point x="106.935" y="203.103"/>
      <point x="150.053" y="264.128"/>
    </contour>
    <contour>
      <point x="453.137" y="544.594" type="line"/>
      <point x="429.639" y="544.594" type="line"/>
      <point x="387.48" y="532.598" type="line"/>
      <point x="361.713" y="510.646" type="line"/>
      <point x="352.507" y="494.659" type="line"/>
      <point x="350.5" y="465.482" type="line"/>
      <point x="360.959" y="452.339" type="line"/>
      <point x="385.146" y="427.708" type="line"/>
      <point x="421.528" y="411.122" type="line"/>
      <point x="463.43" y="382.361" type="line"/>
      <point x="464.194" y="382.127" type="line"/>
      <point x="486.36" y="404.058" type="line"/>
      <point x="506.858" y="427.321" type="line"/>
      <point x="519.169" y="473.816" type="line"/>
      <point x="523.942" y="505.432" type="line"/>
      <point x="519.633" y="525.193" type="line"/>
      <point x="509.477" y="532.744" type="line"/>
      <point x="482.723" y="539.947" type="line"/>
    </contour>
    <contour>
      <point x="398.638" y="188.883" type="line"/>
      <point x="347.021" y="220.254" type="line"/>
      <point x="298.374" y="241.564" type="line"/>
      <point x="294.177" y="237.957" type="line"/>
      <point x="273.803" y="199.796" type="line"/>
      <point x="259.612" y="160.09" type="line"/>
      <point x="251.885" y="116.459" type="line"/>
      <point x="251.01" y="96.8125" type="line"/>
      <point x="270.499" y="71.9268" type="line"/>
      <point x="305.234" y="53.6104" type="line"/>
      <point x="344.328" y="50.9961" type="line"/>
      <point x="383.551" y="66.0586" type="line"/>
      <point x="416.829" y="86.0078" type="line"/>
      <point x="428.958" y="104.559" type="line"/>
      <point x="430.749" y="142.582" type="line"/>
      <point x="426.02" y="164.278" type="line"/>
    </contour>
  </outline>
</glyph>
<glyph name="colon" format="2">
  <advance width="538"/>
  <unicode hex="003A"/>
  <outline>
    <contour>
      <point x="440.502" y="490.769" type="line"/>
      <point x="456.739" y="470.052" type="line"/>
      <point x="465.385" y="443.461" type="line"/>
      <point x="431.733" y="416.29" type="line"/>
      <point x="383.632" y="379.553" type="line"/>
      <point x="337.646" y="342.628" type="line"/>
      <point x="301.015" y="315.695" type="line"/>
      <point x="281.235" y="336.073" type="line"/>
      <point x="280.987" y="336.329" type="line"/>
      <point x="280.78" y="336.619" type="line"/>
      <point x="267.901" y="354.693" type="line"/>
      <point x="208.976" y="436.172" type="line"/>
      <point x="214.42" y="456.806" type="line"/>
      <point x="367.94" y="583.976" type="line"/>
      <point x="395.882" y="548.976" type="line"/>
    </contour>
    <contour>
      <point x="343.034" y="128.277" type="line" smooth="yes"/>
      <point x="347.946" y="122.533"/>
      <point x="361.596" y="112.127"/>
      <point x="364.831" y="97.3506" type="curve" smooth="yes"/>
      <point x="365.047" y="96.3594"/>
      <point x="365.544" y="93.2188"/>
      <point x="365.507" y="90.6279" type="curve" smooth="yes"/>
      <point x="365.478" y="88.6406"/>
      <point x="364.905" y="85.167"/>
      <point x="364.545" y="83.8027" type="curve" smooth="yes"/>
      <point x="364.132" y="82.2363" type="line"/>
      <point x="363.087" y="80.8223" type="line" smooth="yes"/>
      <point x="360.803" y="77.3428"/>
      <point x="356.734" y="69.6416"/>
      <point x="353.745" y="66.1201" type="curve" smooth="yes"/>
      <point x="353.469" y="65.7939"/>
      <point x="352.759" y="65.0215"/>
      <point x="352.255" y="64.5576" type="curve" smooth="yes"/>
      <point x="349.046" y="61.6055"/>
      <point x="348.906" y="61.748"/>
      <point x="346.635" y="59.9258" type="curve" smooth="yes"/>
      <point x="340.968" y="55.377"/>
      <point x="334.544" y="49.6689"/>
      <point x="326.783" y="43.4492" type="curve" smooth="yes"/>
      <point x="255.019" y="-14.0762" type="line" smooth="yes"/>
      <point x="249.625" y="-19.0312"/>
      <point x="241.747" y="-27.3154"/>
      <point x="232.414" y="-33.543" type="curve" smooth="yes"/>
      <point x="219.984" y="-41.8369"/>
      <point x="210.8" y="-41.8545"/>
      <point x="208.688" y="-41.8545" type="curve" smooth="yes"/>
      <point x="206.985" y="-41.8545" type="line"/>
      <point x="206.484" y="-41.5518" type="line"/>
      <point x="203.456" y="-41.415"/>
      <point x="195.256" y="-41.2812"/>
      <point x="187.832" y="-30.2344" type="curve" smooth="yes"/>
      <point x="187.684" y="-30.0117"/>
      <point x="187.247" y="-29.3311"/>
      <point x="187.09" y="-29.1152" type="curve" smooth="yes"/>
      <point x="173.537" y="-10.7051" type="line"/>
      <point x="114.537" y="70.876" type="line"/>
      <point x="119.926" y="91.3027" type="line"/>
      <point x="268.785" y="217.486" type="line"/>
      <point x="283.045" y="205.15" type="line" smooth="yes"/>
      <point x="295.47" y="194.401"/>
      <point x="303.231" y="181.042"/>
      <point x="310.16" y="171.631" type="curve" smooth="yes"/>
    </contour>
  </outline>
</glyph>
<glyph name="equal" format="2">
  <advance width="851"/>
  <unicode hex="003D"/>
  <outline>
    <contour>
      <point x="169.245" y="261.948" type="line"/>
      <point x="875.091" y="261.948" type="line"/>
      <point x="842.611" y="138.83" type="line"/>
      <point x="136.766" y="138.83" type="line"/>
    </contour>
    <contour>
      <point x="221.51" y="460.059" type="line"/>
      <point x="930.258" y="460.059" type="line"/>
      <point x="897.52" y="335.974" type="line"/>
      <point x="188.774" y="335.974" type="line"/>
    </contour>
  </outline>
</glyph>
<glyph name="greater" format="2">
  <advance width="779"/>
  <unicode hex="003E"/>
  <outline>
    <contour>
      <point x="764.743" y="377.275" type="line" smooth="yes"/>
      <point x="771.596" y="373.406"/>
      <point x="779.471" y="369.554"/>
      <point x="787.5" y="365.238" type="curve" smooth="yes"/>
      <point x="790.041" y="363.869"/>
      <point x="803.775" y="358.675"/>
      <point x="803.971" y="342.594" type="curve" smooth="yes"/>
      <point x="804.034" y="337.906"/>
      <point x="803.558" y="330.355"/>
      <point x="800.331" y="318.143" type="curve" smooth="yes"/>
      <point x="796.488" y="303.56"/>
      <point x="792.036" y="292.851"/>
      <point x="789.46" y="283.081" type="curve" smooth="yes"/>
      <point x="789.425" y="282.948"/>
      <point x="788.186" y="276.241"/>
      <point x="787.248" y="272.673" type="curve" smooth="yes"/>
      <point x="785.589" y="266.394"/>
      <point x="782.564" y="258.729"/>
      <point x="776.321" y="251.873" type="curve" smooth="yes"/>
      <point x="761.817" y="235.957"/>
      <point x="734.37" y="230.276"/>
      <point x="726.516" y="227.062" type="curve" smooth="yes"/>
      <point x="155.207" y="-0.113281" type="line" smooth="yes"/>
      <point x="136.9" y="-7.34082"/>
      <point x="116.204" y="-17.0645"/>
      <point x="93.7217" y="-24.0898" type="curve" smooth="yes"/>
      <point x="58.623" y="-35.0566" type="line"/>
      <point x="84.4619" y="62.7334" type="line"/>
      <point x="93.1494" y="88.1992" type="line"/>
      <point x="97.6758" y="101.408" type="line"/>
      <point x="111" y="107.714" type="line"/>
      <point x="123.032" y="113.368" type="line"/>
      <point x="152.066" y="124.874" type="line"/>
      <point x="603.893" y="303.338" type="line"/>
      <point x="247.636" y="492.757" type="line"/>
      <point x="225.855" y="504.524" type="line"/>
      <point x="216.184" y="510.728" type="line"/>
      <point x="205.908" y="517.352" type="line"/>
      <point x="214.331" y="555.104" type="line"/>
      <point x="240.906" y="655.886" type="line"/>
      <point x="270.912" y="641.872" type="line" smooth="yes"/>
      <point x="322.422" y="617.813"/>
      <point x="369.371" y="588.567"/>
      <point x="417.362" y="563.494" type="curve" smooth="yes"/>
    </contour>
  </outline>
</glyph>
<glyph name="question" format="2">
  <advance width="463"/>
  <unicode hex="003F"/>
  <outline>
    <contour>
      <point x="313.792" y="776.538" type="curve" smooth="yes"/>
      <point x="323.848" y="771.295"/>
      <point x="333.064" y="754.67"/>
      <point x="333.226" y="754.488" type="curve" smooth="yes"/>
      <point x="342.457" y="744.163"/>
      <point x="350.847" y="739.515"/>
      <point x="365.764" y="737.079" type="curve" smooth="yes"/>
      <point x="415.041" y="729.05"/>
      <point x="461.292" y="738.542"/>
      <point x="505.666" y="713.818" type="curve" smooth="yes"/>
      <point x="557.225" y="685.091"/>
      <point x="570.714" y="619.016"/>
      <point x="545.393" y="523.04" type="curve" smooth="yes"/>
      <point x="537.569" y="493.384"/>
      <point x="525.987" y="461.174"/>
      <point x="501.739" y="430.502" type="curve" smooth="yes"/>
      <point x="460.309" y="378.098"/>
      <point x="415.612" y="352.611"/>
      <point x="371.771" y="307.857" type="curve" smooth="yes"/>
      <point x="359.263" y="295.089"/>
      <point x="351.591" y="272.368"/>
      <point x="347.089" y="255.302" type="curve" smooth="yes"/>
      <point x="346.466" y="252.943"/>
      <point x="346.038" y="251.193"/>
      <point x="345.725" y="250.002" type="curve" smooth="yes"/>
      <point x="344.236" y="244.363"/>
      <point x="342.817" y="238.703"/>
      <point x="341.346" y="233.123" type="curve" smooth="yes"/>
      <point x="340.518" y="229.983"/>
      <point x="338.975" y="221.026"/>
      <point x="337.172" y="214.192" type="curve" smooth="yes"/>
      <point x="337.092" y="213.891"/>
      <point x="336.844" y="212.987"/>
      <point x="336.758" y="212.686" type="curve" smooth="yes"/>
      <point x="335.143" y="207.037"/>
      <point x="333.248" y="199.985"/>
      <point x="328.429" y="191.746" type="curve" smooth="yes"/>
      <point x="327.211" y="189.664"/>
      <point x="324.92" y="186.246"/>
      <point x="323.848" y="185.012" type="curve" smooth="yes"/>
      <point x="322.24" y="183.16"/>
      <point x="317.626" y="176.334"/>
      <point x="305.573" y="168.332" type="curve" smooth="yes"/>
      <point x="301.01" y="165.303"/>
      <point x="294.308" y="161.59"/>
      <point x="285.94" y="158.218" type="curve"/>
      <point x="333.438" y="151.643"/>
      <point x="360.174" y="106.452"/>
      <point x="352.824" y="61.5967" type="curve" smooth="yes"/>
      <point x="352.23" y="57.9727"/>
      <point x="351.397" y="54.0732"/>
      <point x="350.43" y="50.4072" type="curve" smooth="yes"/>
      <point x="336.471" y="-2.50488"/>
      <point x="285.78" y="-53.0742"/>
      <point x="227.106" y="-60.3867" type="curve" smooth="yes"/>
      <point x="222.124" y="-61.0068"/>
      <point x="217.031" y="-61.2461"/>
      <point x="212.083" y="-61.2461" type="curve" smooth="yes"/>
      <point x="202.811" y="-61.2461"/>
      <point x="193.329" y="-60.2988"/>
      <point x="184.427" y="-57.5996" type="curve" smooth="yes"/>
      <point x="136.877" y="-43.1816"/>
      <point x="120.472" y="3.10449"/>
      <point x="132.577" y="48.9902" type="curve" smooth="yes"/>
      <point x="140.93" y="80.6494"/>
      <point x="162.22" y="111.42"/>
      <point x="193.648" y="133.411" type="curve" smooth="yes"/>
      <point x="205.098" y="141.424"/>
      <point x="216.478" y="146.836"/>
      <point x="227.496" y="150.6" type="curve"/>
      <point x="220.324" y="152.236"/>
      <point x="213.152" y="155.137"/>
      <point x="208.43" y="167.178" type="curve" smooth="yes"/>
      <point x="203.575" y="179.557"/>
      <point x="205.919" y="193.875"/>
      <point x="208.9" y="205.175" type="curve" smooth="yes"/>
      <point x="209.029" y="205.664"/>
      <point x="209.433" y="207.132"/>
      <point x="209.575" y="207.622" type="curve" smooth="yes"/>
      <point x="217.651" y="235.587"/>
      <point x="232.272" y="281.305"/>
      <point x="263.895" y="319.5" type="curve" smooth="yes"/>
      <point x="295.09" y="357.18"/>
      <point x="329.686" y="389.238"/>
      <point x="361.038" y="421.251" type="curve" smooth="yes"/>
      <point x="385.614" y="446.346"/>
      <point x="394.599" y="454.314"/>
      <point x="401.889" y="466.287" type="curve" smooth="yes"/>
      <point x="401.979" y="466.436"/>
      <point x="402.054" y="466.994"/>
      <point x="402.333" y="468.057" type="curve" smooth="yes"/>
      <point x="402.938" y="470.352"/>
      <point x="404.095" y="476.087"/>
      <point x="404.998" y="479.529" type="curve" smooth="yes"/>
      <point x="410.691" y="501.223"/>
      <point x="408.065" y="517.241"/>
      <point x="384.239" y="526.78" type="curve" smooth="yes"/>
      <point x="360.836" y="536.149"/>
      <point x="311.603" y="534.098"/>
      <point x="285.161" y="537.365" type="curve" smooth="yes"/>
      <point x="264.671" y="539.896"/>
      <point x="238.061" y="543.666"/>
      <point x="222.967" y="567.718" type="curve" smooth="yes"/>
      <point x="202.481" y="600.361"/>
      <point x="207.08" y="647.592"/>
      <point x="215.953" y="681.227" type="curve" smooth="yes"/>
      <point x="218.977" y="692.688"/>
      <point x="222.887" y="703.759"/>
      <point x="227.116" y="714.175" type="curve" smooth="yes"/>
      <point x="232.497" y="727.419"/>
      <point x="236.927" y="740.586"/>
      <point x="245.558" y="752.92" type="curve" smooth="yes"/>
      <point x="250.208" y="759.57"/>
      <point x="255.416" y="764.812"/>
      <point x="260.825" y="768.663" type="curve" smooth="yes"/>
      <point x="261.55" y="769.181" type="line"/>
      <point x="262.335" y="769.552" type="line" smooth="yes"/>
      <point x="264.401" y="770.525"/>
      <point x="270.665" y="775.572"/>
      <point x="282.836" y="778.036" type="curve" smooth="yes"/>
      <point x="287.95" y="779.072"/>
      <point x="291.648" y="779.289"/>
      <point x="294.732" y="779.674" type="curve" smooth="yes"/>
      <point x="296.784" y="779.933"/>
      <point x="297.993" y="780.003"/>
      <point x="298.792" y="780.003" type="curve" smooth="yes"/>
      <point x="299.15" y="780.003"/>
      <point x="300.214" y="779.919"/>
      <point x="300.55" y="779.855" type="curve" smooth="yes"/>
      <point x="303.245" y="779.338"/>
      <point x="310.96" y="778.015"/>
    </contour>
  </outline>
</glyph>
<glyph name="bracketleft" format="2">
  <advance width="385"/>
  <unicode hex="005B"/>
  <outline>
    <contour>
      <point x="248.271" y="706.125" type="line"/>
      <point x="555.969" y="706.125" type="line"/>
      <point x="530.116" y="608.128" type="line"/>
      <point x="368.729" y="608.128" type="line"/>
      <point x="173.286" y="-132.705" type="line"/>
      <point x="334.673" y="-132.705" type="line"/>
      <point x="309.076" y="-229.731" type="line"/>
      <point x="1.37695" y="-229.731" type="line"/>
    </contour>
  </outline>
</glyph>
<glyph name="backslash" format="2">
  <advance width="383"/>
  <unicode hex="005C"/>
  <outline>
    <contour>
      <point x="318.258" y="838.537" type="curve" smooth="yes"/>
      <point x="318.508" y="838.537"/>
      <point x="319.301" y="838.53"/>
      <point x="319.549" y="838.53" type="curve" smooth="yes"/>
      <point x="322.237" y="838.495"/>
      <point x="328.618" y="837.963"/>
      <point x="330.551" y="837.564" type="curve" smooth="yes"/>
      <point x="340.832" y="835.45"/>
      <point x="344.363" y="830.13"/>
      <point x="345.305" y="828.855" type="curve" smooth="yes"/>
      <point x="353.323" y="818.006"/>
      <point x="350.012" y="806.932"/>
      <point x="350.391" y="801.486" type="curve" smooth="yes"/>
      <point x="396.912" y="-21.9033" type="line"/>
      <point x="242.012" y="-21.9033" type="line"/>
      <point x="244.426" y="-1.1084" type="line" smooth="yes"/>
      <point x="246.711" y="18.5732"/>
      <point x="241.887" y="38.9453"/>
      <point x="239.925" y="67.2549" type="curve" smooth="yes"/>
      <point x="195.248" y="733.096" type="line" smooth="yes"/>
      <point x="193.677" y="755.671"/>
      <point x="189.607" y="780.493"/>
      <point x="190.495" y="807.765" type="curve" smooth="yes"/>
      <point x="191.464" y="837.605" type="line"/>
      <point x="302.303" y="837.605" type="line" smooth="yes"/>
      <point x="303.871" y="837.605"/>
      <point x="311.985" y="838.544"/>
    </contour>
  </outline>
</glyph>
<glyph name="bracketright" format="2">
  <advance width="385"/>
  <unicode hex="005D"/>
  <outline>
    <contour>
      <point x="203.743" y="703.213" type="line"/>
      <point x="508.543" y="703.213" type="line"/>
      <point x="262.416" y="-229.74" type="line"/>
      <point x="-42.3838" y="-229.74" type="line"/>
      <point x="-16.7861" y="-132.714" type="line"/>
      <point x="143.634" y="-132.714" type="line"/>
      <point x="339.077" y="608.119" type="line"/>
      <point x="178.657" y="608.119" type="line"/>
    </contour>
  </outline>
</glyph>
<glyph name="afii57666" format="2">
  <advance width="521"/>
  <unicode hex="05D2"/>
  <outline>
    <contour>
      <point x="269.872" y="245.21" type="curve" smooth="yes"/>
      <point x="322.099" y="245.21"/>
      <point x="370.267" y="225.204"/>
      <point x="406.29" y="206.953" type="curve"/>
      <point x="408.819" y="219.814"/>
      <point x="410.23" y="236.455"/>
      <point x="411.979" y="248.232" type="curve" smooth="yes"/>
      <point x="423.33" y="324.705"/>
      <point x="428.407" y="398.784"/>
      <point x="387.213" y="442.887" type="curve" smooth="yes"/>
      <point x="378.572" y="452.137"/>
      <point x="359.802" y="471.537"/>
      <point x="335.313" y="481.851" type="curve" smooth="yes"/>
      <point x="314.712" y="490.527"/>
      <point x="288.452" y="495.889"/>
      <point x="275.263" y="516.477" type="curve" smooth="yes"/>
      <point x="274.7" y="517.352"/>
      <point x="274.487" y="517.629"/>
      <point x="274.317" y="517.931" type="curve" smooth="yes"/>
      <point x="274.188" y="518.158"/>
      <point x="273.871" y="518.75"/>
      <point x="273.701" y="519.083" type="curve" smooth="yes"/>
      <point x="273.528" y="519.422"/>
      <point x="273.209" y="520.145"/>
      <point x="272.858" y="520.795" type="curve" smooth="yes"/>
      <point x="272.376" y="521.688"/>
      <point x="272.23" y="521.999"/>
      <point x="272.099" y="522.313" type="curve" smooth="yes"/>
      <point x="271.995" y="522.564"/>
      <point x="271.745" y="523.217"/>
      <point x="271.609" y="523.586" type="curve" smooth="yes"/>
      <point x="271.474" y="523.968"/>
      <point x="271.239" y="524.766"/>
      <point x="270.948" y="525.503" type="curve" smooth="yes"/>
      <point x="270.834" y="525.795"/>
      <point x="270.743" y="525.584"/>
      <point x="270.343" y="526.952" type="curve" smooth="yes"/>
      <point x="270.248" y="527.278"/>
      <point x="269.985" y="528.181"/>
      <point x="269.567" y="530.761" type="curve" smooth="yes"/>
      <point x="269.326" y="532.244"/>
      <point x="267.987" y="536.925"/>
      <point x="269.734" y="546.475" type="curve" smooth="yes"/>
      <point x="269.906" y="547.417"/>
      <point x="270.544" y="550.254"/>
      <point x="270.794" y="551.199" type="curve" smooth="yes"/>
      <point x="273.438" y="561.225"/>
      <point x="278.296" y="570.876"/>
      <point x="280.07" y="574.98" type="curve" smooth="yes"/>
      <point x="295.383" y="610.397"/>
      <point x="320.684" y="644.909"/>
      <point x="357.103" y="673.478" type="curve" smooth="yes"/>
      <point x="369.474" y="683.185"/>
      <point x="378.611" y="690.354"/>
      <point x="390.023" y="696.731" type="curve" smooth="yes"/>
      <point x="398.904" y="701.694"/>
      <point x="409.952" y="706.594"/>
      <point x="422.342" y="707.693" type="curve" smooth="yes"/>
      <point x="427.146" y="708.12"/>
      <point x="431.655" y="708.316"/>
      <point x="436.218" y="708.316" type="curve" smooth="yes"/>
      <point x="502.318" y="708.316"/>
      <point x="545.967" y="665.934"/>
      <point x="570.252" y="631.952" type="curve" smooth="yes"/>
      <point x="603.915" y="584.477"/>
      <point x="587.689" y="508.104"/>
      <point x="575.477" y="457.077" type="curve" smooth="yes"/>
      <point x="551.577" y="357.214"/>
      <point x="525.727" y="257.479"/>
      <point x="499.447" y="157.867" type="curve" smooth="yes"/>
      <point x="473.139" y="58.1582" type="line" smooth="yes"/>
      <point x="469.959" y="47.875"/>
      <point x="465.878" y="35.207"/>
      <point x="456.386" y="21.5674" type="curve" smooth="yes"/>
      <point x="451.455" y="14.4824"/>
      <point x="444.267" y="6.34082"/>
      <point x="434.382" y="0.833008" type="curve" smooth="yes"/>
      <point x="425.255" y="-4.24902"/>
      <point x="417.043" y="-4.86133"/>
      <point x="412.045" y="-4.86133" type="curve" smooth="yes"/>
      <point x="411.163" y="-4.86133"/>
      <point x="406.866" y="-4.67871"/>
      <point x="406.12" y="-4.67871" type="curve" smooth="yes"/>
      <point x="349.604" y="-4.67871" type="line"/>
      <point x="372.184" y="80.9092" type="line" smooth="yes"/>
      <point x="373.75" y="86.8467"/>
      <point x="377.134" y="95.4346"/>
      <point x="378.16" y="99.665" type="curve" smooth="yes"/>
      <point x="378.495" y="101.048"/>
      <point x="378.896" y="101.862"/>
      <point x="379.002" y="102.343" type="curve"/>
      <point x="378.81" y="103.056"/>
      <point x="379.255" y="103.932"/>
      <point x="375.988" y="105.021" type="curve" smooth="yes"/>
      <point x="375.616" y="105.145"/>
      <point x="374.61" y="105.478"/>
      <point x="372.765" y="105.864" type="curve" smooth="yes"/>
      <point x="370.316" y="106.378"/>
      <point x="367.06" y="106.705"/>
      <point x="363.515" y="106.705" type="curve" smooth="yes"/>
      <point x="352.745" y="106.705"/>
      <point x="339.791" y="103.492"/>
      <point x="334.976" y="100.582" type="curve" smooth="yes"/>
      <point x="296.559" y="77.3516"/>
      <point x="271.101" y="26.4785"/>
      <point x="212.188" y="1.44824" type="curve" smooth="yes"/>
      <point x="185.586" y="-9.85352"/>
      <point x="157.49" y="-13.1738"/>
      <point x="131.766" y="-13.1738" type="curve" smooth="yes"/>
      <point x="99.457" y="-13.1738"/>
      <point x="72.1074" y="-5.5"/>
      <point x="52.3438" y="6.62305" type="curve" smooth="yes"/>
      <point x="35.5439" y="16.9277"/>
      <point x="14.1768" y="33.6182"/>
      <point x="16.9053" y="66.5547" type="curve" smooth="yes"/>
      <point x="18.6377" y="87.4717" type="line"/>
      <point x="40.5869" y="94.0498" type="line" smooth="yes"/>
      <point x="59.7549" y="99.7939"/>
      <point x="76.5449" y="111.082"/>
      <point x="86.6035" y="125.767" type="curve" smooth="yes"/>
      <point x="98.6045" y="143.286"/>
      <point x="106.259" y="172.314"/>
      <point x="134.912" y="196.992" type="curve" smooth="yes"/>
      <point x="147.713" y="207.681"/>
      <point x="162.703" y="216.231"/>
      <point x="177.753" y="223.613" type="curve" smooth="yes"/>
      <point x="209.118" y="238.998"/>
      <point x="240.835" y="245.21"/>
    </contour>
  </outline>
</glyph>
<glyph name="afii57667" format="2">
  <advance width="597"/>
  <unicode hex="05D3"/>
  <outline>
    <contour>
      <point x="225.209" y="677.512" type="curve" smooth="yes"/>
      <point x="231.755" y="691.999" type="line"/>
      <point x="317.522" y="691.999" type="line"/>
      <point x="319.697" y="682.051" type="line" smooth="yes"/>
      <point x="319.786" y="671.541"/>
      <point x="324.928" y="656.292"/>
      <point x="335.266" y="652.789" type="curve" smooth="yes"/>
      <point x="338.458" y="651.822"/>
      <point x="348.903" y="649.209"/>
      <point x="370.778" y="649.209" type="curve" smooth="yes"/>
      <point x="370.971" y="649.209"/>
      <point x="371.553" y="649.21"/>
      <point x="371.746" y="649.21" type="curve" smooth="yes"/>
      <point x="386.654" y="649.21"/>
      <point x="403.448" y="650.444"/>
      <point x="419.667" y="650.444" type="curve" smooth="yes"/>
      <point x="687.148" y="650.444" type="line" smooth="yes"/>
      <point x="690.475" y="650.444"/>
      <point x="693.43" y="650.686"/>
      <point x="697.602" y="650.686" type="curve" smooth="yes"/>
      <point x="721.497" y="650.686"/>
      <point x="729.414" y="639.853"/>
      <point x="731.829" y="629.46" type="curve" smooth="yes"/>
      <point x="734.314" y="615.113"/>
      <point x="733.152" y="600.074"/>
      <point x="729.253" y="585.305" type="curve" smooth="yes"/>
      <point x="720.153" y="550.805"/>
      <point x="700.875" y="520.054"/>
      <point x="680.01" y="498.865" type="curve" smooth="yes"/>
      <point x="661.514" y="480.423"/>
      <point x="656.021" y="480.709"/>
      <point x="650.271" y="475.848" type="curve" smooth="yes"/>
      <point x="649.523" y="476.624"/>
      <point x="649.496" y="476.963"/>
      <point x="649.49" y="477.271" type="curve" smooth="yes"/>
      <point x="648.819" y="476.016"/>
      <point x="647.926" y="474.047"/>
      <point x="647.075" y="470.818" type="curve" smooth="yes"/>
      <point x="644.698" y="461.812"/>
      <point x="642.919" y="445.39"/>
      <point x="639.903" y="433.961" type="curve" smooth="yes"/>
      <point x="639.77" y="433.452"/>
      <point x="639.347" y="431.921"/>
      <point x="639.201" y="431.413" type="curve" smooth="yes"/>
      <point x="631.096" y="403.38"/>
      <point x="618.771" y="375.819"/>
      <point x="607.649" y="350.666" type="curve" smooth="yes"/>
      <point x="571.148" y="268.327"/>
      <point x="519.809" y="191.146"/>
      <point x="481.275" y="114.194" type="curve" smooth="yes"/>
      <point x="466.849" y="85.4473"/>
      <point x="449.489" y="57.2441"/>
      <point x="431.582" y="30.2275" type="curve" smooth="yes"/>
      <point x="426.883" y="23.333"/>
      <point x="417.287" y="3.81738"/>
      <point x="399.025" y="-9.98633" type="curve" smooth="yes"/>
      <point x="398.737" y="-9.68555" type="line"/>
      <point x="398.238" y="-9.99023" type="line" smooth="yes"/>
      <point x="393.68" y="-12.624"/>
      <point x="389.03" y="-16.9717"/>
      <point x="374.316" y="-21.3105" type="curve" smooth="yes"/>
      <point x="362.815" y="-24.7217"/>
      <point x="351.4" y="-26.2178"/>
      <point x="340.705" y="-26.2178" type="curve" smooth="yes"/>
      <point x="340.545" y="-26.2178"/>
      <point x="340.068" y="-26.2158"/>
      <point x="339.909" y="-26.2158" type="curve" smooth="yes"/>
      <point x="337.942" y="-26.2021"/>
      <point x="332.095" y="-25.9434"/>
      <point x="330.188" y="-25.7549" type="curve" smooth="yes"/>
      <point x="329.469" y="-25.6846"/>
      <point x="326.547" y="-25.3271"/>
      <point x="325.36" y="-25.1377" type="curve" smooth="yes"/>
      <point x="324.604" y="-25.0195"/>
      <point x="321.757" y="-24.4873"/>
      <point x="320.533" y="-24.2012" type="curve" smooth="yes"/>
      <point x="319.711" y="-24.0137"/>
      <point x="316.93" y="-23.2686"/>
      <point x="315.656" y="-22.8447" type="curve" smooth="yes"/>
      <point x="300.463" y="-17.2275"/>
      <point x="290.228" y="-6.06445"/>
      <point x="285.266" y="-2.17969" type="curve" smooth="yes"/>
      <point x="252.868" y="22.4932"/>
      <point x="225.647" y="50.3799"/>
      <point x="234.899" y="85.4482" type="curve" smooth="yes"/>
      <point x="234.992" y="85.8008"/>
      <point x="235.284" y="86.8613"/>
      <point x="235.386" y="87.2148" type="curve" smooth="yes"/>
      <point x="249.7" y="136.474"/>
      <point x="297.719" y="184.808"/>
      <point x="320.591" y="210.229" type="curve" smooth="yes"/>
      <point x="466.948" y="370.127" type="line" smooth="yes"/>
      <point x="487.67" y="393.435"/>
      <point x="520.312" y="421.283"/>
      <point x="525.695" y="441.686" type="curve" smooth="yes"/>
      <point x="525.797" y="442.061" type="line"/>
      <point x="511.28" y="443.599"/>
      <point x="496.053" y="444.664"/>
      <point x="481.331" y="444.664" type="curve" smooth="yes"/>
      <point x="473.485" y="444.664"/>
      <point x="465.862" y="444.328"/>
      <point x="458.808" y="443.584" type="curve" smooth="yes"/>
      <point x="448.61" y="442.51"/>
      <point x="440.588" y="442.447"/>
      <point x="432.798" y="442.447" type="curve" smooth="yes"/>
      <point x="431.714" y="442.447"/>
      <point x="430.666" y="442.448"/>
      <point x="429.589" y="442.448" type="curve" smooth="yes"/>
      <point x="424.139" y="442.448"/>
      <point x="418.632" y="442.418"/>
      <point x="412.191" y="442.06" type="curve" smooth="yes"/>
      <point x="371.982" y="439.82"/>
      <point x="331.987" y="437.988"/>
      <point x="291.932" y="436.552" type="curve" smooth="yes"/>
      <point x="284.517" y="436.287"/>
      <point x="276.496" y="436.064"/>
      <point x="268.159" y="436.064" type="curve" smooth="yes"/>
      <point x="240.38" y="436.064"/>
      <point x="206.972" y="437.762"/>
      <point x="184.681" y="456.336" type="curve" smooth="yes"/>
      <point x="158.728" y="477.85"/>
      <point x="170.221" y="523.018"/>
      <point x="172.445" y="533.258" type="curve" smooth="yes"/>
      <point x="173.521" y="538.184"/>
      <point x="174.707" y="543.069"/>
      <point x="175.987" y="547.922" type="curve" smooth="yes"/>
      <point x="188.105" y="593.856"/>
      <point x="208.814" y="636.265"/>
    </contour>
  </outline>
</glyph>
<glyph name="afii57670" format="2">
  <advance width="366"/>
  <unicode hex="05D6"/>
  <outline>
    <contour>
      <point x="458.049" y="698.326" type="line" smooth="yes"/>
      <point x="463.312" y="696.627"/>
      <point x="474.081" y="696.859"/>
      <point x="480.846" y="683.566" type="curve" smooth="yes"/>
      <point x="486.567" y="672.325"/>
      <point x="485.414" y="656.475"/>
      <point x="485.84" y="649.487" type="curve" smooth="yes"/>
      <point x="487.389" y="624.057"/>
      <point x="494.591" y="588.611"/>
      <point x="485.235" y="553.148" type="curve" smooth="yes"/>
      <point x="483.166" y="545.305"/>
      <point x="480.239" y="537.314"/>
      <point x="476.27" y="529.245" type="curve" smooth="yes"/>
      <point x="455.434" y="486.894"/>
      <point x="417.453" y="461.146"/>
      <point x="384.065" y="433.102" type="curve" smooth="yes"/>
      <point x="359.14" y="412.675"/>
      <point x="351.887" y="409.904"/>
      <point x="345.725" y="400.274" type="curve" smooth="yes"/>
      <point x="344.276" y="398.015"/>
      <point x="343.529" y="396.105"/>
      <point x="343.058" y="394.318" type="curve" smooth="yes"/>
      <point x="340.436" y="384.378"/>
      <point x="344.275" y="380.988"/>
      <point x="350.321" y="355.199" type="curve" smooth="yes"/>
      <point x="350.391" y="354.818" type="line"/>
      <point x="350.409" y="354.418" type="line" smooth="yes"/>
      <point x="351.347" y="333.909"/>
      <point x="349.34" y="313.06"/>
      <point x="346.498" y="293.131" type="curve" smooth="yes"/>
      <point x="343.798" y="274.189"/>
      <point x="339.756" y="255.393"/>
      <point x="334.847" y="236.781" type="curve" smooth="yes"/>
      <point x="322.413" y="189.651"/>
      <point x="304.383" y="143.789"/>
      <point x="287.933" y="99.2227" type="curve" smooth="yes"/>
      <point x="278.966" y="74.9346"/>
      <point x="268.742" y="51.9404"/>
      <point x="245.982" y="27.3857" type="curve" smooth="yes"/>
      <point x="226.213" y="6.05664"/>
      <point x="208.31" y="-7.07617"/>
      <point x="180.565" y="-16.1816" type="curve" smooth="yes"/>
      <point x="178.929" y="-16.7188"/>
      <point x="177.29" y="-17.2988"/>
      <point x="172.339" y="-18.6279" type="curve" smooth="yes"/>
      <point x="152.992" y="-23.8232"/>
      <point x="135.403" y="-24.4297"/>
      <point x="124.254" y="-24.4297" type="curve" smooth="yes"/>
      <point x="119.398" y="-24.4297"/>
      <point x="115.104" y="-24.2324"/>
      <point x="111.685" y="-24.0381" type="curve" smooth="yes"/>
      <point x="109.734" y="-23.9277"/>
      <point x="103.939" y="-23.334"/>
      <point x="102.105" y="-22.9385" type="curve" smooth="yes"/>
      <point x="89.6377" y="-20.2568"/>
      <point x="85.8535" y="-12.2158"/>
      <point x="85.0654" y="-10.4639" type="curve" smooth="yes"/>
      <point x="82.248" y="-4.19434"/>
      <point x="82.8564" y="3.16602"/>
      <point x="84.4062" y="9.04297" type="curve" smooth="yes"/>
      <point x="85.6885" y="13.9023"/>
      <point x="87.3408" y="17.3906"/>
      <point x="88.4453" y="20.1348" type="curve" smooth="yes"/>
      <point x="91.7256" y="28.3037"/>
      <point x="93.5049" y="36.6689"/>
      <point x="97.6797" y="47.5957" type="curve" smooth="yes"/>
      <point x="115.194" y="93.4385"/>
      <point x="129.523" y="142.365"/>
      <point x="142.045" y="189.714" type="curve" smooth="yes"/>
      <point x="142.653" y="192.014"/>
      <point x="143.261" y="194.312"/>
      <point x="143.865" y="196.604" type="curve" smooth="yes"/>
      <point x="163.836" y="272.302"/>
      <point x="182.21" y="345.707"/>
      <point x="186.847" y="417.828" type="curve" smooth="yes"/>
      <point x="188.708" y="446.767"/>
      <point x="187.14" y="476.187"/>
      <point x="187.601" y="507.546" type="curve" smooth="yes"/>
      <point x="187.815" y="522.106"/>
      <point x="187.911" y="539.232"/>
      <point x="192.943" y="558.303" type="curve" smooth="yes"/>
      <point x="194.618" y="564.654"/>
      <point x="196.873" y="571.239"/>
      <point x="199.927" y="577.941" type="curve" smooth="yes"/>
      <point x="214.23" y="609.33"/>
      <point x="241.08" y="625.354"/>
      <point x="257.893" y="637.194" type="curve" smooth="yes"/>
      <point x="302.925" y="668.91"/>
      <point x="380.498" y="698.653"/>
      <point x="453.066" y="698.653" type="curve" smooth="yes"/>
      <point x="453.717" y="698.653"/>
      <point x="455.663" y="698.629"/>
      <point x="456.309" y="698.613" type="curve" smooth="yes"/>
      <point x="457.23" y="698.59" type="line"/>
    </contour>
  </outline>
</glyph>
<glyph name="afii57671" format="2">
  <advance width="636"/>
  <unicode hex="05D7"/>
  <outline>
    <contour>
      <point x="223.172" y="444.028" type="curve"/>
      <point x="209.478" y="451.752"/>
      <point x="194.527" y="464.607"/>
      <point x="190.957" y="483.243" type="curve" smooth="yes"/>
      <point x="188.371" y="496.745"/>
      <point x="193.159" y="509.14"/>
      <point x="194.527" y="517.563" type="curve" smooth="yes"/>
      <point x="196.103" y="527.262"/>
      <point x="198.214" y="536.765"/>
      <point x="200.673" y="546.086" type="curve" smooth="yes"/>
      <point x="206.773" y="569.209"/>
      <point x="214.967" y="591.202"/>
      <point x="222.713" y="612.848" type="curve" smooth="yes"/>
      <point x="229.048" y="630.557"/>
      <point x="236.84" y="647.531"/>
      <point x="242.918" y="663.222" type="curve" smooth="yes"/>
      <point x="246.166" y="671.629"/>
      <point x="245.31" y="669.926"/>
      <point x="246.388" y="672.392" type="curve" smooth="yes"/>
      <point x="253.781" y="689.296"/>
      <point x="265.496" y="695.489"/>
      <point x="274.069" y="697.771" type="curve" smooth="yes"/>
      <point x="277.985" y="698.814"/>
      <point x="284.097" y="699.955"/>
      <point x="292.718" y="699.955" type="curve" smooth="yes"/>
      <point x="299.679" y="699.955"/>
      <point x="309.642" y="698.979"/>
      <point x="313.177" y="698.979" type="curve" smooth="yes"/>
      <point x="313.943" y="698.979"/>
      <point x="317.632" y="699.217"/>
      <point x="318.822" y="699.217" type="curve" smooth="yes"/>
      <point x="324.552" y="699.217"/>
      <point x="331.385" y="698.785"/>
      <point x="337.411" y="695.23" type="curve" smooth="yes"/>
      <point x="350.68" y="687.398"/>
      <point x="352.443" y="674.873"/>
      <point x="354.285" y="670.244" type="curve" smooth="yes"/>
      <point x="354.407" y="669.955" type="line"/>
      <point x="354.438" y="669.889" type="line"/>
      <point x="357.45" y="666.086"/>
      <point x="361.803" y="663.911"/>
      <point x="383.671" y="661.217" type="curve" smooth="yes"/>
      <point x="405.057" y="658.582"/>
      <point x="427.794" y="657.852"/>
      <point x="451.617" y="657.852" type="curve" smooth="yes"/>
      <point x="475.819" y="657.852"/>
      <point x="501.277" y="658.936"/>
      <point x="527.288" y="658.936" type="curve" smooth="yes"/>
      <point x="548.074" y="658.936"/>
      <point x="569.248" y="658.241"/>
      <point x="590.34" y="655.554" type="curve" smooth="yes"/>
      <point x="617.33" y="652.114"/>
      <point x="657.519" y="646.35"/>
      <point x="680.365" y="621.589" type="curve" smooth="yes"/>
      <point x="712.187" y="586.407"/>
      <point x="714.966" y="525.672"/>
      <point x="715.701" y="495.575" type="curve" smooth="yes"/>
      <point x="716.842" y="449.167"/>
      <point x="710.682" y="399.311"/>
      <point x="697.454" y="349.18" type="curve" smooth="yes"/>
      <point x="676.874" y="271.17"/>
      <point x="641.879" y="202.371"/>
      <point x="601.699" y="147.899" type="curve" smooth="yes"/>
      <point x="563.129" y="95.6113"/>
      <point x="514.183" y="41.7734"/>
      <point x="439.5" y="18.4648" type="curve" smooth="yes"/>
      <point x="418.532" y="11.9365"/>
      <point x="398.621" y="9.25977"/>
      <point x="380.188" y="7.76172" type="curve" smooth="yes"/>
      <point x="377.502" y="7.54102"/>
      <point x="372.057" y="6.86719"/>
      <point x="366.794" y="6.86719" type="curve" smooth="yes"/>
      <point x="360.092" y="6.86719"/>
      <point x="352.25" y="7.51855"/>
      <point x="345.555" y="11.5205" type="curve" smooth="yes"/>
      <point x="340.139" y="14.7568"/>
      <point x="334.777" y="17.249"/>
      <point x="328.957" y="28.9492" type="curve" smooth="yes"/>
      <point x="326.905" y="33.0752"/>
      <point x="325.801" y="36.2881"/>
      <point x="324.619" y="38.9043" type="curve" smooth="yes"/>
      <point x="324.298" y="39.6133"/>
      <point x="322.522" y="43.6299"/>
      <point x="321.937" y="45.2109" type="curve" smooth="yes"/>
      <point x="319.68" y="51.3066"/>
      <point x="318.114" y="59.417"/>
      <point x="320.716" y="69.2754" type="curve" smooth="yes"/>
      <point x="321.168" y="70.9951"/>
      <point x="323.113" y="76.4004"/>
      <point x="324.321" y="78.9424" type="curve" smooth="yes"/>
      <point x="346.793" y="126.236"/>
      <point x="405.126" y="139.257"/>
      <point x="439.061" y="155.304" type="curve" smooth="yes"/>
      <point x="470.119" y="169.99"/>
      <point x="503.04" y="196.446"/>
      <point x="526.25" y="222.253" type="curve" smooth="yes"/>
      <point x="555.684" y="254.975"/>
      <point x="575.994" y="293.321"/>
      <point x="586.063" y="331.489" type="curve" smooth="yes"/>
      <point x="588.196" y="339.578"/>
      <point x="589.873" y="347.652"/>
      <point x="591.084" y="355.654" type="curve" smooth="yes"/>
      <point x="595.031" y="381.711"/>
      <point x="594.432" y="400.294"/>
      <point x="581.681" y="415.568" type="curve" smooth="yes"/>
      <point x="569.021" y="430.731"/>
      <point x="542.005" y="436.303"/>
      <point x="530.655" y="438.351" type="curve" smooth="yes"/>
      <point x="509.786" y="442.152"/>
      <point x="487.257" y="443.49"/>
      <point x="463.706" y="443.49" type="curve" smooth="yes"/>
      <point x="439.748" y="443.49"/>
      <point x="414.841" y="442.145"/>
      <point x="389.683" y="440.724" type="curve" smooth="yes"/>
      <point x="385.178" y="440.47"/>
      <point x="380.705" y="440.349"/>
      <point x="376.438" y="440.349" type="curve" smooth="yes"/>
      <point x="363.37" y="440.349"/>
      <point x="351.526" y="441.234"/>
      <point x="340.993" y="441.626" type="curve" smooth="yes"/>
      <point x="340.826" y="441.632"/>
      <point x="340.656" y="441.639"/>
      <point x="340.491" y="441.646" type="curve"/>
      <point x="338.839" y="438.814"/>
      <point x="337.352" y="436.261"/>
      <point x="335.433" y="433.573" type="curve" smooth="yes"/>
      <point x="322.103" y="414.939"/>
      <point x="310.822" y="397.656"/>
      <point x="307.084" y="383.483" type="curve" smooth="yes"/>
      <point x="305.797" y="378.604"/>
      <point x="305.263" y="374.038"/>
      <point x="305.566" y="369.411" type="curve" smooth="yes"/>
      <point x="307.562" y="339.078"/>
      <point x="301.824" y="308.703"/>
      <point x="301.542" y="283.534" type="curve" smooth="yes"/>
      <point x="301.074" y="241.797"/>
      <point x="304.017" y="197.794"/>
      <point x="298.571" y="152.054" type="curve" smooth="yes"/>
      <point x="297.143" y="140.058"/>
      <point x="297.214" y="121.896"/>
      <point x="292.191" y="102.859" type="curve" smooth="yes"/>
      <point x="290.117" y="94.9971"/>
      <point x="287.092" y="86.6572"/>
      <point x="281.941" y="78.21" type="curve" smooth="yes"/>
      <point x="273.938" y="65.0762"/>
      <point x="257.664" y="50.7227"/>
      <point x="254.624" y="47.8457" type="curve" smooth="yes"/>
      <point x="202.262" y="-1.69043"/>
      <point x="157.34" y="-16.2158"/>
      <point x="142.73" y="-20.624" type="curve" smooth="yes"/>
      <point x="136.432" y="-22.5508"/>
      <point x="123.438" y="-26.9453"/>
      <point x="111.809" y="-26.9453" type="curve" smooth="yes"/>
      <point x="108.361" y="-26.9453"/>
      <point x="104.911" y="-26.5957"/>
      <point x="103.409" y="-26.1094" type="curve" smooth="yes"/>
      <point x="98.8604" y="-24.6406"/>
      <point x="92.1035" y="-24.1094"/>
      <point x="83.3496" y="-13.9785" type="curve" smooth="yes"/>
      <point x="74.7725" y="-4.18457"/>
      <point x="69.5479" y="11.3125"/>
      <point x="70.0488" y="23.5498" type="curve" smooth="yes"/>
      <point x="70.1592" y="26.2197"/>
      <point x="70.9951" y="31.2715"/>
      <point x="71.4717" y="33.0762" type="curve" smooth="yes"/>
      <point x="72.792" y="38.083"/>
      <point x="75.4932" y="44.3389"/>
      <point x="75.8555" y="45.5947" type="curve" smooth="yes"/>
      <point x="79.0605" y="56.6494"/>
      <point x="81.9766" y="68.835"/>
      <point x="86.4307" y="82.0957" type="curve" smooth="yes"/>
      <point x="95.4072" y="108.819"/>
      <point x="101.754" y="137.494"/>
      <point x="111.887" y="167.601" type="curve" smooth="yes"/>
      <point x="127.511" y="214.022"/>
      <point x="140.861" y="261.396"/>
      <point x="157.053" y="309.496" type="curve" smooth="yes"/>
      <point x="164.873" y="332.73"/>
      <point x="171.532" y="359.848"/>
      <point x="185.477" y="387.626" type="curve" smooth="yes"/>
      <point x="196.216" y="409.02"/>
      <point x="208.746" y="425.309"/>
    </contour>
  </outline>
</glyph>
<glyph name="afii57674" format="2">
  <advance width="560"/>
  <unicode hex="05DA"/>
  <outline>
    <contour>
      <point x="485.644" y="442.538" type="curve"/>
      <point x="302.476" y="442.538" type="line" smooth="yes"/>
      <point x="289.418" y="442.538"/>
      <point x="274.135" y="441.748"/>
      <point x="258.036" y="441.748" type="curve" smooth="yes"/>
      <point x="233.147" y="441.748"/>
      <point x="208.932" y="443.641"/>
      <point x="190.486" y="458.571" type="curve" smooth="yes"/>
      <point x="158.594" y="484.386"/>
      <point x="166.46" y="518.482"/>
      <point x="175.918" y="554.336" type="curve" smooth="yes"/>
      <point x="176.305" y="555.799" type="line" smooth="yes"/>
      <point x="183.076" y="581.468"/>
      <point x="190.6" y="606.994"/>
      <point x="200.521" y="632.956" type="curve" smooth="yes"/>
      <point x="204.455" y="643.25"/>
      <point x="209.396" y="653.141"/>
      <point x="213.312" y="662.635" type="curve" smooth="yes"/>
      <point x="217.13" y="671.889"/>
      <point x="217.829" y="673.289"/>
      <point x="219.477" y="675.709" type="curve" smooth="yes"/>
      <point x="219.611" y="675.909"/>
      <point x="219.843" y="676.244"/>
      <point x="220.175" y="676.7" type="curve" smooth="yes"/>
      <point x="221.48" y="678.497"/>
      <point x="225.563" y="682.839"/>
      <point x="228.282" y="684.854" type="curve" smooth="yes"/>
      <point x="229.592" y="685.823" type="line"/>
      <point x="231.069" y="686.299" type="line" smooth="yes"/>
      <point x="234.52" y="687.41"/>
      <point x="243.171" y="691.993"/>
      <point x="248.249" y="692.771" type="curve" smooth="yes"/>
      <point x="252.392" y="693.405"/>
      <point x="256.849" y="693.525"/>
      <point x="257.841" y="693.636" type="curve" smooth="yes"/>
      <point x="270.547" y="695.044"/>
      <point x="282.5" y="696.116"/>
      <point x="293.741" y="697.674" type="curve" smooth="yes"/>
      <point x="322.16" y="702.121" type="line"/>
      <point x="321.423" y="682.083" type="line" smooth="yes"/>
      <point x="320.636" y="660.651"/>
      <point x="356.416" y="649.731"/>
      <point x="416.311" y="649.731" type="curve" smooth="yes"/>
      <point x="416.79" y="649.732" type="line" smooth="yes"/>
      <point x="448.88" y="649.732"/>
      <point x="490.664" y="655.118"/>
      <point x="527.879" y="655.118" type="curve" smooth="yes"/>
      <point x="566.521" y="655.118"/>
      <point x="601.633" y="647.946"/>
      <point x="623.598" y="621.931" type="curve" smooth="yes"/>
      <point x="628.004" y="616.646"/>
      <point x="634.142" y="607.459"/>
      <point x="639.688" y="590.528" type="curve" smooth="yes"/>
      <point x="644.514" y="575.797"/>
      <point x="644.495" y="560.422"/>
      <point x="643.526" y="546.744" type="curve" smooth="yes"/>
      <point x="642.699" y="535.017"/>
      <point x="640.499" y="523.368"/>
      <point x="637.521" y="512.076" type="curve" smooth="yes"/>
      <point x="619.383" y="443.324"/>
      <point x="566.542" y="377.029"/>
      <point x="550.349" y="315.644" type="curve" smooth="yes"/>
      <point x="549.604" y="312.822"/>
      <point x="549.104" y="310.703"/>
      <point x="548.643" y="308.588" type="curve" smooth="yes"/>
      <point x="537.477" y="257.311"/>
      <point x="531.784" y="205.032"/>
      <point x="524.413" y="151.959" type="curve" smooth="yes"/>
      <point x="516.963" y="98.3174"/>
      <point x="508.733" y="44.8408"/>
      <point x="501.908" y="-8.09277" type="curve" smooth="yes"/>
      <point x="497.08" y="-45.1299"/>
      <point x="491.34" y="-82.1514"/>
      <point x="485.173" y="-119.098" type="curve" smooth="yes"/>
      <point x="482.841" y="-133.073"/>
      <point x="481.103" y="-149.307"/>
      <point x="476.471" y="-166.864" type="curve" smooth="yes"/>
      <point x="476.107" y="-168.24"/>
      <point x="474.936" y="-172.369"/>
      <point x="474.51" y="-173.744" type="curve" smooth="yes"/>
      <point x="459.438" y="-222.586"/>
      <point x="426.339" y="-266.81"/>
      <point x="383.785" y="-300.116" type="curve" smooth="yes"/>
      <point x="340.553" y="-333.671"/>
      <point x="308.439" y="-338.195"/>
      <point x="283.679" y="-338.195" type="curve" smooth="yes"/>
      <point x="282.16" y="-338.195"/>
      <point x="282.453" y="-338.237"/>
      <point x="280.63" y="-338.237" type="curve" smooth="yes"/>
      <point x="279.797" y="-338.237"/>
      <point x="277.303" y="-338.087"/>
      <point x="276.548" y="-337.902" type="curve" smooth="yes"/>
      <point x="267.699" y="-335.727"/>
      <point x="258.77" y="-336.372"/>
      <point x="250.09" y="-324.067" type="curve" smooth="yes"/>
      <point x="244.843" y="-316.635"/>
      <point x="239.237" y="-301.856"/>
      <point x="243.647" y="-272.665" type="curve" smooth="yes"/>
      <point x="244.831" y="-264.833"/>
      <point x="246.593" y="-257.181"/>
      <point x="248.544" y="-249.784" type="curve" smooth="yes"/>
      <point x="252.087" y="-236.355"/>
      <point x="256.248" y="-223.652"/>
      <point x="259.247" y="-212.287" type="curve" smooth="yes"/>
      <point x="267.181" y="-182.215"/>
      <point x="274.172" y="-151.542"/>
      <point x="282.317" y="-120.503" type="curve" smooth="yes"/>
      <point x="303.527" y="-39.6631"/>
      <point x="323.823" y="41.165"/>
      <point x="345.229" y="122.302" type="curve" smooth="yes"/>
      <point x="349.319" y="137.823" type="line"/>
      <point x="349.535" y="138.333" type="line" smooth="yes"/>
      <point x="383.4" y="218.313"/>
      <point x="405.106" y="298.905"/>
      <point x="448.311" y="381.682" type="curve" smooth="yes"/>
      <point x="459.515" y="403.145"/>
      <point x="472.326" y="423.162"/>
    </contour>
  </outline>
</glyph>
<glyph name="afii57675" format="2">
  <advance width="560"/>
  <unicode hex="05DB"/>
  <outline>
    <contour>
      <point x="291.924" y="706.496" type="curve" smooth="yes"/>
      <point x="303.226" y="705.432"/>
      <point x="312.127" y="700.574"/>
      <point x="314.327" y="698.799" type="curve" smooth="yes"/>
      <point x="314.592" y="698.692"/>
      <point x="315.059" y="698.486"/>
      <point x="315.496" y="698.244" type="curve" smooth="yes"/>
      <point x="322.832" y="689.583"/>
      <point x="318.848" y="683.391"/>
      <point x="318.873" y="679.759" type="curve" smooth="yes"/>
      <point x="318.319" y="672.232"/>
      <point x="318.961" y="667.582"/>
      <point x="319.848" y="665.139" type="curve" smooth="yes"/>
      <point x="321.308" y="661.247"/>
      <point x="330.099" y="652.954"/>
      <point x="351.467" y="648.179" type="curve" smooth="yes"/>
      <point x="366.599" y="645.275"/>
      <point x="383.911" y="644.412"/>
      <point x="402.624" y="644.412" type="curve" smooth="yes"/>
      <point x="416.892" y="644.412"/>
      <point x="431.997" y="644.84"/>
      <point x="447.52" y="644.84" type="curve" smooth="yes"/>
      <point x="476.319" y="644.84"/>
      <point x="507.166" y="643.515"/>
      <point x="535.747" y="633.654" type="curve" smooth="yes"/>
      <point x="554.17" y="627.344"/>
      <point x="584.804" y="612.59"/>
      <point x="604.671" y="579.167" type="curve" smooth="yes"/>
      <point x="636.649" y="523.594"/>
      <point x="626.538" y="453.798"/>
      <point x="616.459" y="401.174" type="curve" smooth="yes"/>
      <point x="614.228" y="389.628"/>
      <point x="611.605" y="378.078"/>
      <point x="608.561" y="366.536" type="curve" smooth="yes"/>
      <point x="585.739" y="280.038"/>
      <point x="538.809" y="194.346"/>
      <point x="465.988" y="121.312" type="curve" smooth="yes"/>
      <point x="465.358" y="119.874"/>
      <point x="465.737" y="120.618"/>
      <point x="465.304" y="119.421" type="curve" smooth="yes"/>
      <point x="464.994" y="118.922"/>
      <point x="464.992" y="118.91"/>
      <point x="464.845" y="118.669" type="curve" smooth="yes"/>
      <point x="462.847" y="115.995"/>
      <point x="461.025" y="113.291"/>
      <point x="455.832" y="109.622" type="curve" smooth="yes"/>
      <point x="369.688" y="40.0771"/>
      <point x="260.308" y="8.78906"/>
      <point x="186.387" y="-3.72168" type="curve" smooth="yes"/>
      <point x="155.036" y="-9.06738"/>
      <point x="124.936" y="-11.7324"/>
      <point x="96.5186" y="-13.4336" type="curve" smooth="yes"/>
      <point x="88.5371" y="-13.9326"/>
      <point x="82.625" y="-14.8662"/>
      <point x="73.5781" y="-14.8662" type="curve" smooth="yes"/>
      <point x="69.9443" y="-14.8662"/>
      <point x="65.9951" y="-14.6709"/>
      <point x="62.0967" y="-14.1523" type="curve" smooth="yes"/>
      <point x="61.1689" y="-14.0186" type="line"/>
      <point x="60.2461" y="-14.1523" type="line" smooth="yes"/>
      <point x="55.2695" y="-12.0703"/>
      <point x="45.0518" y="-11.1523"/>
      <point x="39.3027" y="1.18359" type="curve" smooth="yes"/>
      <point x="34.0469" y="14.1338"/>
      <point x="37.3066" y="28.4619"/>
      <point x="39.2539" y="40.1777" type="curve" smooth="yes"/>
      <point x="40.2588" y="46.0469"/>
      <point x="39.6328" y="57.7021"/>
      <point x="42.7139" y="69.3857" type="curve" smooth="yes"/>
      <point x="42.7871" y="69.6582"/>
      <point x="43.0078" y="70.4678"/>
      <point x="43.084" y="70.7402" type="curve" smooth="yes"/>
      <point x="48.6406" y="90.2744"/>
      <point x="56.1562" y="103.039"/>
      <point x="62.6133" y="121.43" type="curve" smooth="yes"/>
      <point x="67.5449" y="135.708"/>
      <point x="74.0967" y="154.723"/>
      <point x="90.2725" y="171.388" type="curve" smooth="yes"/>
      <point x="94.627" y="176.01"/>
      <point x="99.6309" y="180.36"/>
      <point x="105.187" y="184.124" type="curve" smooth="yes"/>
      <point x="130.048" y="200.597"/>
      <point x="150.771" y="198.176"/>
      <point x="178.825" y="199.899" type="curve" smooth="yes"/>
      <point x="218.959" y="202.135"/>
      <point x="259.936" y="205.721"/>
      <point x="299.569" y="211.821" type="curve" smooth="yes"/>
      <point x="381.162" y="223.151"/>
      <point x="427.867" y="250.365"/>
      <point x="449.556" y="268.564" type="curve" smooth="yes"/>
      <point x="460.108" y="278.235"/>
      <point x="469.608" y="288.977"/>
      <point x="476.504" y="299.394" type="curve" smooth="yes"/>
      <point x="481.457" y="306.877"/>
      <point x="483.886" y="313.721"/>
      <point x="489.796" y="329.179" type="curve" smooth="yes"/>
      <point x="491.82" y="334.473"/>
      <point x="493.614" y="339.99"/>
      <point x="495.091" y="345.591" type="curve" smooth="yes"/>
      <point x="506.033" y="387.067"/>
      <point x="498.523" y="423.907"/>
      <point x="462.724" y="436.156" type="curve" smooth="yes"/>
      <point x="441.822" y="443.309"/>
      <point x="417.514" y="445.529"/>
      <point x="390.438" y="445.529" type="curve" smooth="yes"/>
      <point x="359.213" y="445.529"/>
      <point x="324.645" y="442.47"/>
      <point x="289.671" y="442.47" type="curve" smooth="yes"/>
      <point x="281.364" y="442.47"/>
      <point x="273.025" y="442.651"/>
      <point x="264.698" y="443.118" type="curve" smooth="yes"/>
      <point x="249.537" y="443.969"/>
      <point x="196.189" y="445.046"/>
      <point x="174.245" y="467.35" type="curve" smooth="yes"/>
      <point x="170.252" y="471.272"/>
      <point x="156.488" y="487.542"/>
      <point x="157.945" y="521.16" type="curve" smooth="yes"/>
      <point x="158.681" y="533.968"/>
      <point x="161.088" y="546.616"/>
      <point x="164.324" y="558.884" type="curve" smooth="yes"/>
      <point x="171.356" y="585.54"/>
      <point x="182.613" y="610.652"/>
      <point x="190.739" y="632.933" type="curve" smooth="yes"/>
      <point x="195.24" y="645.186"/>
      <point x="200.421" y="657.813"/>
      <point x="209.789" y="673.405" type="curve" smooth="yes"/>
      <point x="215.023" y="681.897"/>
      <point x="215.988" y="683.747"/>
      <point x="218.586" y="686.822" type="curve" smooth="yes"/>
      <point x="220.227" y="688.584"/>
      <point x="223.453" y="691.34"/>
      <point x="224.824" y="692.332" type="curve" smooth="yes"/>
      <point x="225.668" y="691.728" type="line"/>
      <point x="227.201" y="692.332" type="line" smooth="yes"/>
      <point x="231.35" y="694.165"/>
      <point x="240.336" y="699.215"/>
      <point x="244.866" y="700.546" type="curve" smooth="yes"/>
      <point x="245.205" y="700.595"/>
      <point x="245.908" y="700.686"/>
      <point x="246.584" y="700.742" type="curve" smooth="yes"/>
      <point x="249.9" y="701.288"/>
      <point x="253.327" y="701.484"/>
      <point x="254.093" y="701.582" type="curve" smooth="yes"/>
      <point x="264.188" y="702.919"/>
      <point x="274.568" y="704.459"/>
      <point x="284.994" y="705.978" type="curve" smooth="yes"/>
      <point x="286.782" y="706.216"/>
      <point x="290.565" y="706.636"/>
    </contour>
  </outline>
</glyph>
<glyph name="afii57680" format="2">
  <advance width="443"/>
  <unicode hex="05E0"/>
  <outline>
    <contour>
      <point x="453.823" y="627.48" type="curve" smooth="yes"/>
      <point x="508.025" y="593.876"/>
      <point x="518.462" y="539.193"/>
      <point x="511.163" y="473.427" type="curve" smooth="yes"/>
      <point x="507.062" y="437.598"/>
      <point x="500.061" y="400.373"/>
      <point x="490.174" y="362.901" type="curve" smooth="yes"/>
      <point x="462.752" y="258.956"/>
      <point x="409.15" y="136.709"/>
      <point x="289.202" y="49.165" type="curve" smooth="yes"/>
      <point x="202.521" y="-11.5332"/>
      <point x="127.796" y="-26.1777"/>
      <point x="90.0752" y="-31.0908" type="curve" smooth="yes"/>
      <point x="84.0156" y="-31.9336"/>
      <point x="71.4414" y="-35.8389"/>
      <point x="59.8018" y="-35.8389" type="curve" smooth="yes"/>
      <point x="57.5605" y="-35.8389"/>
      <point x="56.793" y="-37.542"/>
      <point x="56.9199" y="-36.1475" type="curve" smooth="yes"/>
      <point x="55.2598" y="-36.418" type="line"/>
      <point x="53.6885" y="-36.1475" type="line" smooth="yes"/>
      <point x="42.3262" y="-34.5186"/>
      <point x="24.5537" y="-32.6562"/>
      <point x="19.2725" y="-16.2529" type="curve" smooth="yes"/>
      <point x="19.1963" y="-15.916" type="line"/>
      <point x="18.9795" y="-16.2529" type="line" smooth="yes"/>
      <point x="17.9287" y="-8.21191"/>
      <point x="19.1006" y="-0.0703125"/>
      <point x="19.6689" y="3.77246" type="curve" smooth="yes"/>
      <point x="20.3184" y="8.08398"/>
      <point x="21.2461" y="12.335"/>
      <point x="22.3389" y="16.4805" type="curve" smooth="yes"/>
      <point x="30.04" y="45.6699"/>
      <point x="43.1592" y="71.5029"/>
      <point x="51.1846" y="94.3105" type="curve" smooth="yes"/>
      <point x="55.8506" y="107.676"/>
      <point x="64.9014" y="140.39"/>
      <point x="84.209" y="164.456" type="curve" smooth="yes"/>
      <point x="84.6426" y="165.412" type="line"/>
      <point x="84.9375" y="165.714" type="line" smooth="yes"/>
      <point x="91.8281" y="173.318"/>
      <point x="99.1523" y="184.582"/>
      <point x="118.681" y="191.769" type="curve" smooth="yes"/>
      <point x="124.002" y="193.65"/>
      <point x="128.177" y="194.225"/>
      <point x="131.388" y="195.09" type="curve" smooth="yes"/>
      <point x="151.202" y="200.184"/>
      <point x="174.539" y="206.14"/>
      <point x="198.823" y="211.334" type="curve" smooth="yes"/>
      <point x="241.948" y="219.128"/>
      <point x="295.004" y="228.074"/>
      <point x="326.04" y="246.828" type="curve"/>
      <point x="338.673" y="258.405"/>
      <point x="348.351" y="272.809"/>
      <point x="358.604" y="289.61" type="curve" smooth="yes"/>
      <point x="366.508" y="302.559"/>
      <point x="372.964" y="316.665"/>
      <point x="376.558" y="330.292" type="curve" smooth="yes"/>
      <point x="381.396" y="348.632"/>
      <point x="382.839" y="372.054"/>
      <point x="369.283" y="390.613" type="curve" smooth="yes"/>
      <point x="358.07" y="405.962"/>
      <point x="338.778" y="417.886"/>
      <point x="315.13" y="426.337" type="curve" smooth="yes"/>
      <point x="285.959" y="436.762"/>
      <point x="253.258" y="445.898"/>
      <point x="222.841" y="458.765" type="curve"/>
      <point x="214.073" y="458.005"/>
      <point x="207.319" y="457.547"/>
      <point x="200.822" y="456.719" type="curve" smooth="yes"/>
      <point x="197.244" y="456.265" type="line"/>
      <point x="195.47" y="458.764" type="line" smooth="yes"/>
      <point x="191.379" y="463.152"/>
      <point x="189.134" y="467.802"/>
      <point x="187.445" y="472.552" type="curve" smooth="yes"/>
      <point x="184.143" y="488.095"/>
      <point x="188.103" y="507.365"/>
      <point x="189.627" y="516.261" type="curve" smooth="yes"/>
      <point x="190.44" y="521.026"/>
      <point x="191.45" y="525.67"/>
      <point x="192.679" y="530.327" type="curve" smooth="yes"/>
      <point x="197.268" y="547.724"/>
      <point x="210.229" y="573.912"/>
      <point x="253.766" y="613.692" type="curve" smooth="yes"/>
      <point x="263.015" y="622.05"/>
      <point x="272.042" y="632.093"/>
      <point x="288.938" y="639.526" type="curve" smooth="yes"/>
      <point x="289.382" y="639.335" type="line"/>
      <point x="289.965" y="639.524" type="line" smooth="yes"/>
      <point x="291.762" y="640.113"/>
      <point x="293.272" y="640.415"/>
      <point x="295.667" y="641.209" type="curve" smooth="yes"/>
      <point x="326.213" y="650.808"/>
      <point x="360.199" y="648.988"/>
      <point x="378.288" y="649.847" type="curve" smooth="yes"/>
      <point x="379.192" y="649.884"/>
      <point x="381.961" y="649.906"/>
      <point x="382.855" y="649.906" type="curve" smooth="yes"/>
      <point x="411.156" y="649.906"/>
      <point x="436.681" y="637.494"/>
    </contour>
  </outline>
</glyph>
<glyph name="afii57682" format="2">
  <advance width="723"/>
  <unicode hex="05E2"/>
  <outline>
    <contour>
      <point x="432.177" y="201.562" type="curve" smooth="yes"/>
      <point x="478.629" y="207.998"/>
      <point x="525.459" y="215.785"/>
      <point x="561.605" y="233.137" type="curve" smooth="yes"/>
      <point x="611.444" y="256.652"/>
      <point x="658.078" y="307.512"/>
      <point x="670.674" y="355.255" type="curve" smooth="yes"/>
      <point x="676.995" y="379.214"/>
      <point x="675.15" y="400.752"/>
      <point x="663.83" y="417.894" type="curve" smooth="yes"/>
      <point x="646.977" y="443.417"/>
      <point x="611.952" y="450.314"/>
      <point x="571.354" y="459.221" type="curve" smooth="yes"/>
      <point x="553.922" y="461.429"/>
      <point x="534.968" y="463.979"/>
      <point x="516.66" y="468.511" type="curve" smooth="yes"/>
      <point x="509.901" y="471.624"/>
      <point x="508.632" y="472.223"/>
      <point x="506.602" y="473.383" type="curve" smooth="yes"/>
      <point x="501.813" y="476.462"/>
      <point x="496.21" y="481.046"/>
      <point x="493.04" y="488.83" type="curve" smooth="yes"/>
      <point x="488.879" y="498.998"/>
      <point x="489.576" y="510.294"/>
      <point x="492.11" y="519.903" type="curve" smooth="yes"/>
      <point x="496.304" y="535.799"/>
      <point x="510.209" y="552.027"/>
      <point x="515.757" y="559.643" type="curve" smooth="yes"/>
      <point x="537.464" y="590.287"/>
      <point x="561.591" y="631.132"/>
      <point x="599.92" y="661.355" type="curve" smooth="yes"/>
      <point x="605.174" y="665.396"/>
      <point x="616.747" y="674.933"/>
      <point x="630.683" y="681.918" type="curve" smooth="yes"/>
      <point x="641.051" y="686.874"/>
      <point x="654.101" y="691.02"/>
      <point x="668.567" y="691.597" type="curve" smooth="yes"/>
      <point x="669.312" y="691.627"/>
      <point x="671.538" y="691.672"/>
      <point x="672.276" y="691.672" type="curve" smooth="yes"/>
      <point x="705.383" y="691.672"/>
      <point x="719.88" y="675.513"/>
      <point x="735.392" y="665.182" type="curve" smooth="yes"/>
      <point x="790.797" y="626.754"/>
      <point x="803.48" y="559.448"/>
      <point x="803.173" y="507.777" type="curve" smooth="yes"/>
      <point x="802.858" y="471.521"/>
      <point x="796.523" y="435.354"/>
      <point x="786.975" y="399.169" type="curve" smooth="yes"/>
      <point x="751.128" y="263.277"/>
      <point x="653.535" y="103.348"/>
      <point x="472.976" y="32.3984" type="curve" smooth="yes"/>
      <point x="364.447" y="-10.1113"/>
      <point x="245.75" y="-30.873"/>
      <point x="135.55" y="-30.873" type="curve" smooth="yes"/>
      <point x="111.563" y="-30.873"/>
      <point x="89.7881" y="-30.4922"/>
      <point x="69.8213" y="-29.0283" type="curve" smooth="yes"/>
      <point x="58.75" y="-28.2764"/>
      <point x="58.8115" y="-28.6748"/>
      <point x="55.0742" y="-28.0469" type="curve" smooth="yes"/>
      <point x="49.2812" y="-27.1963"/>
      <point x="40.0781" y="-24.8389"/>
      <point x="34.8564" y="-17.3574" type="curve" smooth="yes"/>
      <point x="24.3594" y="1.22949"/>
      <point x="25.834" y="23.1025"/>
      <point x="31.0625" y="42.9238" type="curve" smooth="yes"/>
      <point x="38.4941" y="71.0938"/>
      <point x="52.7441" y="97.793"/>
      <point x="62.1357" y="117.859" type="curve" smooth="yes"/>
      <point x="71.5947" y="138.57"/>
      <point x="78.54" y="159.996"/>
      <point x="99.6436" y="174.178" type="curve" smooth="yes"/>
      <point x="101.075" y="175.207"/>
      <point x="103.698" y="177.016"/>
      <point x="107.18" y="178.783" type="curve" smooth="yes"/>
      <point x="114.951" y="182.76"/>
      <point x="121.757" y="183.549"/>
      <point x="127.435" y="183.549" type="curve" smooth="yes"/>
      <point x="133.55" y="183.549"/>
      <point x="142.921" y="182.118"/>
      <point x="145.049" y="182.118" type="curve" smooth="yes"/>
      <point x="162.839" y="182.118"/>
      <point x="188.236" y="182.085"/>
      <point x="213.595" y="182.085" type="curve" smooth="yes"/>
      <point x="226.275" y="182.085"/>
      <point x="238.995" y="182.097"/>
      <point x="251.648" y="182.118" type="curve" smooth="yes"/>
      <point x="251.695" y="182.118"/>
      <point x="251.848" y="182.12"/>
      <point x="251.895" y="182.12" type="curve" smooth="yes"/>
      <point x="253.109" y="182.12"/>
      <point x="254.513" y="182.111"/>
      <point x="255.814" y="182.111" type="curve" smooth="yes"/>
      <point x="255.979" y="182.111"/>
      <point x="256.438" y="182.112"/>
      <point x="256.604" y="182.113" type="curve" smooth="yes"/>
      <point x="264.838" y="182.175"/>
      <point x="271.055" y="182.305"/>
      <point x="275.866" y="182.523" type="curve"/>
      <point x="275.89" y="182.931"/>
      <point x="275.791" y="183.255"/>
      <point x="275.911" y="183.712" type="curve" smooth="yes"/>
      <point x="276.281" y="185.11"/>
      <point x="276.814" y="186.83"/>
      <point x="276.926" y="187.179" type="curve" smooth="yes"/>
      <point x="278.376" y="191.57"/>
      <point x="279.647" y="196.009"/>
      <point x="280.844" y="200.544" type="curve" smooth="yes"/>
      <point x="289.229" y="232.326"/>
      <point x="290.803" y="266.441"/>
      <point x="296.134" y="301.62" type="curve" smooth="yes"/>
      <point x="301.578" y="337.543"/>
      <point x="305.581" y="370.536"/>
      <point x="303.396" y="404.439" type="curve" smooth="yes"/>
      <point x="302.114" y="424.316"/>
      <point x="302.885" y="434.81"/>
      <point x="298.742" y="443.664" type="curve" smooth="yes"/>
      <point x="298.569" y="444.031"/>
      <point x="298.649" y="443.528"/>
      <point x="298.347" y="443.787" type="curve" smooth="yes"/>
      <point x="293.032" y="448.345"/>
      <point x="280.251" y="453.723"/>
      <point x="271.288" y="458.758" type="curve" smooth="yes"/>
      <point x="247.923" y="471.849"/>
      <point x="210.312" y="499.308"/>
      <point x="220.836" y="543.362" type="curve" smooth="yes"/>
      <point x="220.941" y="543.799"/>
      <point x="221.274" y="545.111"/>
      <point x="221.39" y="545.548" type="curve" smooth="yes"/>
      <point x="225.761" y="562.117"/>
      <point x="235.546" y="578.84"/>
      <point x="239.823" y="586.973" type="curve" smooth="yes"/>
      <point x="250.26" y="606.957"/>
      <point x="261.709" y="630.103"/>
      <point x="281.139" y="652.419" type="curve" smooth="yes"/>
      <point x="281.279" y="652.088" type="line"/>
      <point x="281.645" y="652.422" type="line" smooth="yes"/>
      <point x="289.097" y="658.967"/>
      <point x="306.372" y="675.234"/>
      <point x="330.761" y="685.11" type="curve" smooth="yes"/>
      <point x="332.188" y="685.667"/>
      <point x="334.823" y="686.678"/>
      <point x="338.399" y="687.799" type="curve" smooth="yes"/>
      <point x="350.594" y="691.563"/>
      <point x="362.362" y="692.228"/>
      <point x="371.621" y="692.228" type="curve" smooth="yes"/>
      <point x="392.915" y="692.228"/>
      <point x="417.572" y="687.304"/>
      <point x="421.579" y="685.862" type="curve" smooth="yes"/>
      <point x="434.609" y="681.11"/>
      <point x="444.762" y="671.467"/>
      <point x="449.896" y="667.215" type="curve" smooth="yes"/>
      <point x="468.165" y="652.111"/>
      <point x="493.165" y="631.962"/>
      <point x="497.317" y="600.585" type="curve" smooth="yes"/>
      <point x="498.377" y="593.985"/>
      <point x="497.651" y="587.59"/>
      <point x="496.121" y="581.793" type="curve" smooth="yes"/>
      <point x="492.137" y="566.691"/>
      <point x="484.921" y="555.428"/>
      <point x="480.319" y="544.038" type="curve" smooth="yes"/>
      <point x="468.404" y="514.926"/>
      <point x="457.146" y="486.15"/>
      <point x="447.424" y="457.389" type="curve" smooth="yes"/>
      <point x="434.671" y="419.576"/>
      <point x="423.459" y="381.514"/>
      <point x="413.387" y="343.335" type="curve" smooth="yes"/>
      <point x="400.324" y="293.819"/>
      <point x="389.501" y="244.155"/>
      <point x="380.29" y="194.764" type="curve"/>
      <point x="396.999" y="196.513"/>
      <point x="414.554" y="199.067"/>
    </contour>
  </outline>
</glyph>
<glyph name="afii57683" format="2">
  <advance width="636"/>
  <unicode hex="05E3"/>
  <outline>
    <contour>
      <point x="467.973" y="671.883" type="curve" smooth="yes"/>
      <point x="487.818" y="671.883"/>
      <point x="506.146" y="668.798"/>
      <point x="524.976" y="666.598" type="curve" smooth="yes"/>
      <point x="597.455" y="657.026"/>
      <point x="647.9" y="631.887"/>
      <point x="685.745" y="594.607" type="curve" smooth="yes"/>
      <point x="697.883" y="582.739"/>
      <point x="708.701" y="569.841"/>
      <point x="717.759" y="553.863" type="curve" smooth="yes"/>
      <point x="723.73" y="544.014"/>
      <point x="725.06" y="542.015"/>
      <point x="726.222" y="538.032" type="curve" smooth="yes"/>
      <point x="726.684" y="536.755"/>
      <point x="727.279" y="534.26"/>
      <point x="727.426" y="533.222" type="curve" smooth="yes"/>
      <point x="727.72" y="531.136"/>
      <point x="727.384" y="525.357"/>
      <point x="726.564" y="522.265" type="curve" smooth="yes"/>
      <point x="724.71" y="515.216"/>
      <point x="722.105" y="510.079"/>
      <point x="720.797" y="506.354" type="curve" smooth="yes"/>
      <point x="713.16" y="484.921"/>
      <point x="702.814" y="465.354"/>
      <point x="693.286" y="447.177" type="curve" smooth="yes"/>
      <point x="661.755" y="386.699"/>
      <point x="627.322" y="331.512"/>
      <point x="604.639" y="274.186" type="curve" smooth="yes"/>
      <point x="596.517" y="253.662"/>
      <point x="590.011" y="233.421"/>
      <point x="584.666" y="213.163" type="curve" smooth="yes"/>
      <point x="573.491" y="170.806"/>
      <point x="567.38" y="128.247"/>
      <point x="561.479" y="83.3477" type="curve" smooth="yes"/>
      <point x="552.827" y="18.0117"/>
      <point x="546.028" y="-47.7139"/>
      <point x="535.546" y="-114.544" type="curve" smooth="yes"/>
      <point x="532.061" y="-136.687"/>
      <point x="527.954" y="-158.85"/>
      <point x="523.068" y="-181.19" type="curve" smooth="yes"/>
      <point x="521.43" y="-188.67"/>
      <point x="520.944" y="-194.124"/>
      <point x="518.53" y="-203.274" type="curve" smooth="yes"/>
      <point x="517.539" y="-207.032"/>
      <point x="516.161" y="-211.24"/>
      <point x="514.156" y="-215.625" type="curve" smooth="yes"/>
      <point x="495.696" y="-256.836"/>
      <point x="457.784" y="-288.326"/>
      <point x="422.747" y="-310.657" type="curve" smooth="yes"/>
      <point x="409.191" y="-319.285"/>
      <point x="381.643" y="-338.025"/>
      <point x="359.779" y="-341.516" type="curve" smooth="yes"/>
      <point x="358.151" y="-341.749"/>
      <point x="357.578" y="-341.883"/>
      <point x="354.361" y="-342.048" type="curve" smooth="yes"/>
      <point x="352.83" y="-342.131"/>
      <point x="351.911" y="-342.156"/>
      <point x="351.307" y="-342.156" type="curve" smooth="yes"/>
      <point x="351.066" y="-342.156"/>
      <point x="350.344" y="-342.148"/>
      <point x="350.107" y="-342.14" type="curve" smooth="yes"/>
      <point x="339.536" y="-341.177"/>
      <point x="317.058" y="-340.485"/>
      <point x="309.096" y="-314.535" type="curve" smooth="yes"/>
      <point x="306.474" y="-306.5"/>
      <point x="304.963" y="-298.26"/>
      <point x="305.492" y="-290.034" type="curve" smooth="yes"/>
      <point x="305.755" y="-286.01"/>
      <point x="306.483" y="-282.356"/>
      <point x="307.42" y="-278.809" type="curve" smooth="yes"/>
      <point x="310.597" y="-266.765"/>
      <point x="314.873" y="-257.989"/>
      <point x="316.909" y="-250.271" type="curve" smooth="yes"/>
      <point x="325.959" y="-215.964"/>
      <point x="336.346" y="-182.18"/>
      <point x="345.151" y="-148.801" type="curve" smooth="yes"/>
      <point x="363.438" y="-79.4854"/>
      <point x="385.965" y="-10.8545"/>
      <point x="403.877" y="57.04" type="curve" smooth="yes"/>
      <point x="408.088" y="72.999"/>
      <point x="412.122" y="89.3076"/>
      <point x="416.486" y="105.849" type="curve" smooth="yes"/>
      <point x="429.873" y="156.592"/>
      <point x="445.495" y="209.562"/>
      <point x="473.636" y="261.634" type="curve" smooth="yes"/>
      <point x="490.406" y="292.666"/>
      <point x="508.219" y="323.182"/>
      <point x="528.345" y="353.057" type="curve" smooth="yes"/>
      <point x="543.069" y="374.912"/>
      <point x="547.814" y="377.723"/>
      <point x="550.371" y="384.017" type="curve"/>
      <point x="550.559" y="384.164" type="line"/>
      <point x="550.524" y="384.288"/>
      <point x="550.532" y="384.45"/>
      <point x="550.585" y="384.654" type="curve" smooth="yes"/>
      <point x="551.562" y="389.741"/>
      <point x="549.59" y="399.795"/>
      <point x="532.084" y="417.995" type="curve" smooth="yes"/>
      <point x="500.122" y="445.332"/>
      <point x="441.459" y="467.207"/>
      <point x="375.697" y="473.371" type="curve" smooth="yes"/>
      <point x="360.447" y="474.971"/>
      <point x="349.512" y="477.263"/>
      <point x="339.069" y="477.263" type="curve" smooth="yes"/>
      <point x="334.417" y="477.263"/>
      <point x="331.887" y="477.005"/>
      <point x="330.971" y="476.852" type="curve" smooth="yes"/>
      <point x="324.878" y="475.565"/>
      <point x="313.099" y="470.313"/>
      <point x="292.224" y="455.575" type="curve" smooth="yes"/>
      <point x="277.549" y="442.716"/>
      <point x="269.106" y="427.582"/>
      <point x="265.124" y="412.482" type="curve" smooth="yes"/>
      <point x="260.323" y="394.282"/>
      <point x="261.908" y="374.44"/>
      <point x="269.268" y="358.229" type="curve" smooth="yes"/>
      <point x="276.72" y="341.814"/>
      <point x="292.375" y="325.977"/>
      <point x="309.195" y="311.451" type="curve" smooth="yes"/>
      <point x="329.38" y="294.019"/>
      <point x="353.048" y="288.006"/>
      <point x="369.397" y="262.881" type="curve" smooth="yes"/>
      <point x="384.856" y="239.543"/>
      <point x="380.4" y="216.173"/>
      <point x="377" y="188.581" type="curve" smooth="yes"/>
      <point x="376.13" y="181.89"/>
      <point x="376.369" y="173.64"/>
      <point x="373.414" y="162.441" type="curve" smooth="yes"/>
      <point x="372.556" y="159.182"/>
      <point x="371.109" y="155.107"/>
      <point x="368.274" y="150.791" type="curve" smooth="yes"/>
      <point x="368.121" y="151.821" type="line"/>
      <point x="366.976" y="150.79" type="line" smooth="yes"/>
      <point x="365.012" y="149.13"/>
      <point x="357.493" y="140.928"/>
      <point x="353.021" y="138.283" type="curve" smooth="yes"/>
      <point x="347.957" y="135.312"/>
      <point x="343.782" y="133.695"/>
      <point x="339.742" y="131.948" type="curve" smooth="yes"/>
      <point x="322.844" y="124.329"/>
      <point x="304.77" y="118.661"/>
      <point x="286.6" y="115.608" type="curve" smooth="yes"/>
      <point x="273.448" y="113.381"/>
      <point x="260.531" y="112.279"/>
      <point x="248.028" y="112.279" type="curve" smooth="yes"/>
      <point x="194.091" y="112.279"/>
      <point x="149.466" y="132.664"/>
      <point x="129.854" y="170.311" type="curve" smooth="yes"/>
      <point x="121.372" y="187.046"/>
      <point x="104.193" y="226.85"/>
      <point x="123.37" y="314.021" type="curve" smooth="yes"/>
      <point x="124.953" y="321.176"/>
      <point x="126.665" y="328.296"/>
      <point x="128.54" y="335.4" type="curve" smooth="yes"/>
      <point x="147.769" y="408.288"/>
      <point x="185.444" y="487.224"/>
      <point x="255.938" y="564.063" type="curve" smooth="yes"/>
      <point x="291.188" y="602.154"/>
      <point x="339.477" y="634.198"/>
      <point x="393.602" y="654.602" type="curve" smooth="yes"/>
      <point x="403.197" y="658.21"/>
      <point x="428.549" y="668.531"/>
      <point x="451.048" y="671.016" type="curve" smooth="yes"/>
      <point x="456.864" y="671.645"/>
      <point x="462.504" y="671.883"/>
    </contour>
  </outline>
</glyph>
<glyph name="afii57684" format="2">
  <advance width="675"/>
  <unicode hex="05E4"/>
  <outline>
    <contour>
      <point x="364.673" y="685.217" type="line" smooth="yes"/>
      <point x="370.396" y="661.778"/>
      <point x="362.575" y="657.757"/>
      <point x="369.658" y="651.09" type="curve" smooth="yes"/>
      <point x="382.242" y="639.243"/>
      <point x="411.452" y="641.196"/>
      <point x="445.533" y="639.221" type="curve" smooth="yes"/>
      <point x="513.7" y="635.266"/>
      <point x="585.977" y="642.652"/>
      <point x="650.867" y="623.543" type="curve" smooth="yes"/>
      <point x="744.765" y="595.46"/>
      <point x="742.616" y="487.833"/>
      <point x="733.642" y="422.791" type="curve" smooth="yes"/>
      <point x="731.829" y="409.49"/>
      <point x="729.89" y="395.921"/>
      <point x="726.859" y="381.947" type="curve" smooth="yes"/>
      <point x="725.207" y="374.34"/>
      <point x="723.359" y="366.666"/>
      <point x="721.322" y="358.949" type="curve" smooth="yes"/>
      <point x="698.554" y="272.633"/>
      <point x="652.731" y="178.495"/>
      <point x="574.579" y="108.073" type="curve" smooth="yes"/>
      <point x="509.678" y="51.0684"/>
      <point x="414.396" y="10.5967"/>
      <point x="332.55" y="-10.6611" type="curve" smooth="yes"/>
      <point x="281.998" y="-23.9795"/>
      <point x="225.318" y="-35.207"/>
      <point x="171.839" y="-35.207" type="curve" smooth="yes"/>
      <point x="158.426" y="-35.207"/>
      <point x="145.375" y="-34.3408"/>
      <point x="133.496" y="-32.9912" type="curve" smooth="yes"/>
      <point x="121.087" y="-31.5332"/>
      <point x="108.862" y="-31.3984"/>
      <point x="97.543" y="-27.6895" type="curve" smooth="yes"/>
      <point x="88.9717" y="-24.8828"/>
      <point x="77.9053" y="-19.21"/>
      <point x="74.042" y="-5.6543" type="curve" smooth="yes"/>
      <point x="71.3398" y="3.55078"/>
      <point x="72.959" y="12.8027"/>
      <point x="74.877" y="20.0723" type="curve" smooth="yes"/>
      <point x="76.2783" y="25.3828"/>
      <point x="76.4531" y="25.4424"/>
      <point x="77.2461" y="28.4473" type="curve" smooth="yes"/>
      <point x="77.3643" y="28.8984"/>
      <point x="77.7227" y="30.4775"/>
      <point x="77.7588" y="30.7012" type="curve" smooth="yes"/>
      <point x="78.998" y="38.3955"/>
      <point x="80.666" y="46.1006"/>
      <point x="82.6982" y="53.8047" type="curve" smooth="yes"/>
      <point x="88.5107" y="75.835"/>
      <point x="97.1904" y="97.7021"/>
      <point x="107.256" y="118.327" type="curve" smooth="yes"/>
      <point x="109.817" y="123.576"/>
      <point x="115.114" y="134.483"/>
      <point x="122.517" y="144.017" type="curve" smooth="yes"/>
      <point x="134.324" y="159.222"/>
      <point x="146.251" y="164.235"/>
      <point x="149.062" y="165.428" type="curve" smooth="yes"/>
      <point x="161.097" y="170.53"/>
      <point x="174.781" y="170.688"/>
      <point x="180.863" y="170.688" type="curve" smooth="yes"/>
      <point x="186.949" y="170.688"/>
      <point x="186.967" y="170.594"/>
      <point x="190.821" y="170.594" type="curve" smooth="yes"/>
      <point x="191.065" y="170.594"/>
      <point x="192.788" y="170.609"/>
      <point x="193.281" y="170.628" type="curve" smooth="yes"/>
      <point x="214.57" y="171.441"/>
      <point x="236.837" y="172.981"/>
      <point x="259.679" y="174.259" type="curve" smooth="yes"/>
      <point x="357.645" y="179.738"/>
      <point x="438.934" y="181.524"/>
      <point x="510.639" y="218.177" type="curve" smooth="yes"/>
      <point x="563.507" y="245.2"/>
      <point x="598.462" y="288.898"/>
      <point x="610.699" y="335.286" type="curve" smooth="yes"/>
      <point x="612.267" y="341.225"/>
      <point x="613.427" y="347.31"/>
      <point x="614.267" y="353.377" type="curve" smooth="yes"/>
      <point x="618.122" y="381.171"/>
      <point x="612.668" y="407.128"/>
      <point x="591.981" y="421.445" type="curve" smooth="yes"/>
      <point x="579.143" y="430.332"/>
      <point x="553.668" y="432.767"/>
      <point x="524.69" y="436.188" type="curve" smooth="yes"/>
      <point x="501.745" y="438.896"/>
      <point x="478.668" y="440.536"/>
      <point x="455.423" y="440.536" type="curve" smooth="yes"/>
      <point x="442.228" y="440.536"/>
      <point x="428.943" y="440.017"/>
      <point x="415.547" y="438.925" type="curve" smooth="yes"/>
      <point x="404.338" y="438.011"/>
      <point x="386.791" y="438.613"/>
      <point x="377.604" y="435.4" type="curve" smooth="yes"/>
      <point x="365.914" y="431.316"/>
      <point x="339.908" y="411.32"/>
      <point x="329.454" y="391.635" type="curve"/>
      <point x="330.227" y="389.547"/>
      <point x="331.312" y="387.393"/>
      <point x="333.992" y="383.542" type="curve" smooth="yes"/>
      <point x="344.314" y="368.72"/>
      <point x="364.419" y="354.763"/>
      <point x="365.847" y="330.473" type="curve" smooth="yes"/>
      <point x="366.134" y="325.607"/>
      <point x="365.645" y="320.357"/>
      <point x="364.205" y="314.902" type="curve" smooth="yes"/>
      <point x="363.968" y="314.003"/>
      <point x="363.137" y="311.304"/>
      <point x="362.821" y="310.406" type="curve" smooth="yes"/>
      <point x="356.717" y="293.038"/>
      <point x="343.776" y="280.231"/>
      <point x="334.081" y="270.15" type="curve" smooth="yes"/>
      <point x="315.479" y="250.808"/>
      <point x="289.979" y="222.794"/>
      <point x="253.252" y="209.358" type="curve" smooth="yes"/>
      <point x="244.631" y="206.203"/>
      <point x="225.685" y="200.366"/>
      <point x="208.889" y="200.366" type="curve" smooth="yes"/>
      <point x="201.577" y="200.366"/>
      <point x="195.974" y="201.518"/>
      <point x="191.64" y="203.479" type="curve" smooth="yes"/>
      <point x="173.983" y="211.474"/>
      <point x="162.167" y="229.665"/>
      <point x="157.353" y="237.935" type="curve" smooth="yes"/>
      <point x="133.79" y="278.405"/>
      <point x="143.483" y="315.583"/>
      <point x="145.709" y="324.021" type="curve" smooth="yes"/>
      <point x="148.229" y="333.574"/>
      <point x="152.078" y="343.332"/>
      <point x="157.396" y="353.017" type="curve" smooth="yes"/>
      <point x="168.847" y="373.873"/>
      <point x="184.604" y="390.812"/>
      <point x="199.052" y="405.303" type="curve" smooth="yes"/>
      <point x="212.802" y="419.096"/>
      <point x="226.757" y="430.653"/>
      <point x="239.469" y="441.235" type="curve"/>
      <point x="232.874" y="444.591"/>
      <point x="218.821" y="453.238"/>
      <point x="209.755" y="481.368" type="curve" smooth="yes"/>
      <point x="202.596" y="503.586"/>
      <point x="204.754" y="527.391"/>
      <point x="210.693" y="549.906" type="curve" smooth="yes"/>
      <point x="218.388" y="579.075"/>
      <point x="232.299" y="606.921"/>
      <point x="243.557" y="630.886" type="curve" smooth="yes"/>
      <point x="248.281" y="640.946"/>
      <point x="253.118" y="651.161"/>
      <point x="257.854" y="661.615" type="curve" smooth="yes"/>
      <point x="260.591" y="667.653"/>
      <point x="261.229" y="669.263"/>
      <point x="262.159" y="670.948" type="curve" smooth="yes"/>
      <point x="264.691" y="675.53"/>
      <point x="268.77" y="681.208"/>
      <point x="275.176" y="685.939" type="curve" smooth="yes"/>
      <point x="276.269" y="686.746" type="line"/>
      <point x="277.491" y="687.213" type="line" smooth="yes"/>
      <point x="280.046" y="688.19"/>
      <point x="290.408" y="693.546"/>
      <point x="294.955" y="694.425" type="curve" smooth="yes"/>
      <point x="301.217" y="695.633"/>
      <point x="307.017" y="695.578"/>
      <point x="309.315" y="695.686" type="curve" smooth="yes"/>
      <point x="323.494" y="696.348"/>
      <point x="328.198" y="695.978"/>
      <point x="332.834" y="697.581" type="curve" smooth="yes"/>
      <point x="359.577" y="706.097" type="line"/>
    </contour>
  </outline>
</glyph>
<glyph name="afii57688" format="2">
  <advance width="597"/>
  <unicode hex="05E8"/>
  <outline>
    <contour>
      <point x="243.133" y="701.897" type="line" smooth="yes"/>
      <point x="250.055" y="701.897"/>
      <point x="256.923" y="701.876"/>
      <point x="263.742" y="701.876" type="curve" smooth="yes"/>
      <point x="267.1" y="701.876"/>
      <point x="270.604" y="701.855"/>
      <point x="274" y="701.897" type="curve" smooth="yes"/>
      <point x="274.341" y="701.904"/>
      <point x="274.472" y="701.904"/>
      <point x="274.507" y="701.911" type="curve" smooth="yes"/>
      <point x="276.115" y="702.282"/>
      <point x="277.843" y="702.723"/>
      <point x="282.525" y="702.723" type="curve" smooth="yes"/>
      <point x="287.838" y="702.723"/>
      <point x="296.777" y="699.378"/>
      <point x="299.22" y="697.337" type="curve" smooth="yes"/>
      <point x="299.616" y="697.006" type="line"/>
      <point x="299.931" y="696.603" type="line" smooth="yes"/>
      <point x="301.429" y="694.686"/>
      <point x="306.844" y="690.933"/>
      <point x="308.327" y="687.719" type="curve" smooth="yes"/>
      <point x="311.229" y="681.436"/>
      <point x="310.75" y="673.227"/>
      <point x="310.764" y="673.165" type="curve" smooth="yes"/>
      <point x="312.437" y="666.163"/>
      <point x="313.822" y="661.677"/>
      <point x="325.07" y="659.85" type="curve" smooth="yes"/>
      <point x="344.157" y="656.75"/>
      <point x="365.315" y="655.761"/>
      <point x="387.946" y="655.761" type="curve" smooth="yes"/>
      <point x="417.044" y="655.761"/>
      <point x="448.806" y="658.112"/>
      <point x="480.995" y="658.112" type="curve" smooth="yes"/>
      <point x="519.523" y="658.112"/>
      <point x="559.981" y="655.221"/>
      <point x="594.545" y="637.867" type="curve" smooth="yes"/>
      <point x="644.938" y="612.257"/>
      <point x="655.514" y="551.024"/>
      <point x="658.883" y="509.902" type="curve" smooth="yes"/>
      <point x="663.039" y="459.146"/>
      <point x="656.595" y="405.045"/>
      <point x="642.33" y="350.978" type="curve" smooth="yes"/>
      <point x="624.727" y="284.248"/>
      <point x="595.172" y="217.507"/>
      <point x="558.113" y="156.67" type="curve" smooth="yes"/>
      <point x="534.867" y="118.512"/>
      <point x="509.062" y="79.751"/>
      <point x="474.748" y="44.6641" type="curve" smooth="yes"/>
      <point x="456.501" y="26.4697"/>
      <point x="433.439" y="7.18848"/>
      <point x="401.927" y="-6.13086" type="curve" smooth="yes"/>
      <point x="380.369" y="-15.3271"/>
      <point x="354.239" y="-23.0381"/>
      <point x="328.355" y="-23.0381" type="curve" smooth="yes"/>
      <point x="301.737" y="-23.0381"/>
      <point x="279.596" y="-14.7256"/>
      <point x="268.703" y="2.94531" type="curve" smooth="yes"/>
      <point x="261.814" y="15.6914"/>
      <point x="260.373" y="30.375"/>
      <point x="264.275" y="45.166" type="curve" smooth="yes"/>
      <point x="268.414" y="60.8516"/>
      <point x="278.493" y="76.7295"/>
      <point x="293.941" y="89.8193" type="curve" smooth="yes"/>
      <point x="311.799" y="104.952"/>
      <point x="328.977" y="112.086"/>
      <point x="343.918" y="121.977" type="curve" smooth="yes"/>
      <point x="357.364" y="130.876"/>
      <point x="370.851" y="140.749"/>
      <point x="383.713" y="150.732" type="curve" smooth="yes"/>
      <point x="457.497" y="208.012"/>
      <point x="514.445" y="267.615"/>
      <point x="533.007" y="337.974" type="curve" smooth="yes"/>
      <point x="542.728" y="374.818"/>
      <point x="539.957" y="401.592"/>
      <point x="519.278" y="420.443" type="curve" smooth="yes"/>
      <point x="510.65" y="428.31"/>
      <point x="492.35" y="439.354"/>
      <point x="449.029" y="443.642" type="curve" smooth="yes"/>
      <point x="431.923" y="445.353"/>
      <point x="414.144" y="446.143"/>
      <point x="395.877" y="446.143" type="curve" smooth="yes"/>
      <point x="359.297" y="446.143"/>
      <point x="320.418" y="443.485"/>
      <point x="280.963" y="443.485" type="curve" smooth="yes"/>
      <point x="240.706" y="443.485"/>
      <point x="173" y="444.45"/>
      <point x="162.462" y="499.873" type="curve" smooth="yes"/>
      <point x="160.285" y="511.321"/>
      <point x="163.37" y="521.561"/>
      <point x="164.317" y="528.748" type="curve" smooth="yes"/>
      <point x="166.039" y="541.802"/>
      <point x="169.006" y="554.344"/>
      <point x="172.173" y="566.351" type="curve" smooth="yes"/>
      <point x="174.438" y="574.935"/>
      <point x="176.826" y="583.201"/>
      <point x="178.954" y="591.231" type="curve" smooth="yes"/>
      <point x="187.558" y="623.714"/>
      <point x="202.665" y="654.171"/>
      <point x="213.645" y="681.671" type="curve" smooth="yes"/>
      <point x="221.719" y="701.897" type="line"/>
    </contour>
  </outline>
</glyph>
<glyph name="afii57690" format="2">
  <advance width="674"/>
  <unicode hex="05EA"/>
  <outline>
    <contour>
      <point x="251.612" y="450.318" type="curve"/>
      <point x="246.482" y="452.935"/>
      <point x="240.564" y="456.605"/>
      <point x="236.338" y="461.408" type="curve" smooth="yes"/>
      <point x="214.427" y="486.4"/>
      <point x="217.182" y="521.14"/>
      <point x="225.166" y="551.404" type="curve" smooth="yes"/>
      <point x="232.048" y="577.492"/>
      <point x="243.315" y="602.532"/>
      <point x="251.201" y="621.852" type="curve" smooth="yes"/>
      <point x="257.031" y="636.134"/>
      <point x="262.498" y="650.078"/>
      <point x="267.021" y="664.05" type="curve" smooth="yes"/>
      <point x="267.701" y="666.152"/>
      <point x="267.239" y="666.309"/>
      <point x="268.465" y="670.948" type="curve" smooth="yes"/>
      <point x="271.132" y="681.06"/>
      <point x="276.808" y="690.083"/>
      <point x="286.117" y="696.228" type="curve" smooth="yes"/>
      <point x="294.08" y="701.484"/>
      <point x="300.939" y="703.017"/>
      <point x="309.779" y="703.017" type="curve" smooth="yes"/>
      <point x="315.914" y="703.017"/>
      <point x="316.675" y="702.667"/>
      <point x="317.984" y="702.667" type="curve" smooth="yes"/>
      <point x="329.218" y="702.667"/>
      <point x="342.354" y="703.633"/>
      <point x="356.662" y="703.633" type="curve" smooth="yes"/>
      <point x="378.484" y="703.633" type="line"/>
      <point x="378.512" y="686.553" type="line" smooth="yes"/>
      <point x="378.521" y="681.26"/>
      <point x="379.721" y="668.24"/>
      <point x="387.4" y="661.719" type="curve" smooth="yes"/>
      <point x="397.842" y="652.853"/>
      <point x="420.812" y="649.709"/>
      <point x="460.955" y="649.709" type="curve" smooth="yes"/>
      <point x="471.559" y="649.709"/>
      <point x="482.257" y="649.75"/>
      <point x="493.019" y="649.75" type="curve" smooth="yes"/>
      <point x="534.693" y="649.75"/>
      <point x="577.446" y="649.235"/>
      <point x="619.312" y="642.943" type="curve" smooth="yes"/>
      <point x="656.422" y="637.367"/>
      <point x="694.549" y="626.037"/>
      <point x="715.022" y="595.978" type="curve" smooth="yes"/>
      <point x="725.585" y="580.04"/>
      <point x="729.232" y="558.637"/>
      <point x="731.227" y="548.673" type="curve" smooth="yes"/>
      <point x="735.994" y="524.883"/>
      <point x="739.396" y="500.385"/>
      <point x="739.102" y="473.718" type="curve" smooth="yes"/>
      <point x="738.646" y="432.916"/>
      <point x="732.711" y="391.152"/>
      <point x="721.714" y="349.475" type="curve" smooth="yes"/>
      <point x="702.933" y="278.285"/>
      <point x="669.418" y="207.332"/>
      <point x="623.221" y="141.791" type="curve" smooth="yes"/>
      <point x="605.536" y="116.701"/>
      <point x="523.239" y="7.49512"/>
      <point x="424.398" y="7.49512" type="curve" smooth="yes"/>
      <point x="409.243" y="7.49512"/>
      <point x="394.308" y="10.1641"/>
      <point x="380.248" y="15.6807" type="curve" smooth="yes"/>
      <point x="379.806" y="15.8535" type="line"/>
      <point x="379.414" y="16.0908" type="line" smooth="yes"/>
      <point x="373.033" y="19.9619"/>
      <point x="359.697" y="24.7812"/>
      <point x="356.841" y="46.5547" type="curve" smooth="yes"/>
      <point x="355.061" y="60.1221"/>
      <point x="358.693" y="75.709"/>
      <point x="360.262" y="83.0469" type="curve" smooth="yes"/>
      <point x="360.843" y="85.7598"/>
      <point x="361.178" y="88.4678"/>
      <point x="362.131" y="92.0811" type="curve" smooth="yes"/>
      <point x="365.141" y="103.487"/>
      <point x="372.327" y="113.231"/>
      <point x="383.365" y="120.596" type="curve" smooth="yes"/>
      <point x="419.623" y="144.786"/>
      <point x="449.158" y="149.124"/>
      <point x="483.444" y="166.095" type="curve" smooth="yes"/>
      <point x="518.034" y="183.216"/>
      <point x="546.085" y="212.818"/>
      <point x="560.676" y="231.241" type="curve" smooth="yes"/>
      <point x="584.795" y="261.689"/>
      <point x="598.514" y="295.546"/>
      <point x="608.033" y="331.633" type="curve" smooth="yes"/>
      <point x="608.354" y="332.849"/>
      <point x="609.289" y="336.5"/>
      <point x="609.595" y="337.717" type="curve" smooth="yes"/>
      <point x="616.233" y="364.269"/>
      <point x="617.719" y="384.845"/>
      <point x="606.938" y="400.504" type="curve" smooth="yes"/>
      <point x="584.976" y="432.399"/>
      <point x="539.517" y="436.898"/>
      <point x="482.622" y="436.898" type="curve" smooth="yes"/>
      <point x="470.405" y="436.898"/>
      <point x="457.893" y="436.718"/>
      <point x="445.369" y="436.718" type="curve" smooth="yes"/>
      <point x="427.673" y="436.718"/>
      <point x="410.987" y="439.221"/>
      <point x="397.966" y="439.221" type="curve" smooth="yes"/>
      <point x="392.86" y="439.221"/>
      <point x="389.156" y="438.9"/>
      <point x="386.446" y="438.493" type="curve"/>
      <point x="371.105" y="425.228" type="line" smooth="yes"/>
      <point x="344.803" y="403.42"/>
      <point x="324.203" y="383.687"/>
      <point x="314.939" y="362.383" type="curve" smooth="yes"/>
      <point x="312.877" y="357.641"/>
      <point x="311.254" y="352.903"/>
      <point x="309.989" y="348.11" type="curve" smooth="yes"/>
      <point x="304.218" y="326.231"/>
      <point x="306.329" y="302.573"/>
      <point x="309.561" y="277.249" type="curve" smooth="yes"/>
      <point x="312.717" y="252.53"/>
      <point x="312.019" y="228.604"/>
      <point x="314.721" y="207.755" type="curve" smooth="yes"/>
      <point x="318.778" y="176.417"/>
      <point x="327.354" y="143.08"/>
      <point x="316.634" y="102.443" type="curve" smooth="yes"/>
      <point x="315.32" y="97.4619"/>
      <point x="313.707" y="92.3877"/>
      <point x="311.758" y="87.2285" type="curve" smooth="yes"/>
      <point x="293.005" y="37.6152"/>
      <point x="269.394" y="17.2637"/>
      <point x="252.5" y="5.90332" type="curve" smooth="yes"/>
      <point x="250.863" y="4.78906"/>
      <point x="245.755" y="0.87793"/>
      <point x="234.885" y="-3.29688" type="curve" smooth="yes"/>
      <point x="233.826" y="-3.70215"/>
      <point x="231.702" y="-4.48438"/>
      <point x="229.571" y="-5.18262" type="curve" smooth="yes"/>
      <point x="217.666" y="-9.08398"/>
      <point x="204.04" y="-11.376"/>
      <point x="200.679" y="-12.0986" type="curve" smooth="yes"/>
      <point x="167.272" y="-19.29"/>
      <point x="133.813" y="-24.0566"/>
      <point x="102.146" y="-24.0566" type="curve" smooth="yes"/>
      <point x="98.4492" y="-24.0566"/>
      <point x="90.8105" y="-24.9746"/>
      <point x="83.415" y="-24.9746" type="curve" smooth="yes"/>
      <point x="83.2822" y="-24.9746"/>
      <point x="82.8838" y="-24.9727"/>
      <point x="82.7529" y="-24.9707" type="curve" smooth="yes"/>
      <point x="81.6025" y="-24.959"/>
      <point x="76.3896" y="-24.7656"/>
      <point x="74.2148" y="-24.5068" type="curve" smooth="yes"/>
      <point x="73.4424" y="-24.4141"/>
      <point x="70.7607" y="-23.9961"/>
      <point x="69.5283" y="-23.7275" type="curve" smooth="yes"/>
      <point x="68.1377" y="-23.4229"/>
      <point x="65.4512" y="-22.625"/>
      <point x="64.5938" y="-22.3115" type="curve" smooth="yes"/>
      <point x="61.3779" y="-21.1406"/>
      <point x="59.5361" y="-20.1377"/>
      <point x="58.6172" y="-19.2578" type="curve" smooth="yes"/>
      <point x="56.7168" y="-17.4365"/>
      <point x="51.5518" y="-12.4854"/>
      <point x="50.1025" y="-9.71289" type="curve" smooth="yes"/>
      <point x="43.501" y="2.55566"/>
      <point x="45.9775" y="22.3408"/>
      <point x="46.2002" y="25.3076" type="curve" smooth="yes"/>
      <point x="47.2148" y="38.8828"/>
      <point x="50.207" y="51.9561"/>
      <point x="53.4375" y="64.2041" type="curve" smooth="yes"/>
      <point x="55.957" y="73.7529"/>
      <point x="58.6455" y="82.8574"/>
      <point x="60.8926" y="91.3721" type="curve" smooth="yes"/>
      <point x="62.374" y="96.9902"/>
      <point x="63.3154" y="103.308"/>
      <point x="65.5938" y="111.943" type="curve" smooth="yes"/>
      <point x="67.958" y="120.909"/>
      <point x="70.4336" y="126.403"/>
      <point x="72.1865" y="129.885" type="curve" smooth="yes"/>
      <point x="84.7021" y="154.722"/>
      <point x="109.653" y="169.486"/>
      <point x="136.05" y="181.119" type="curve" smooth="yes"/>
      <point x="140.78" y="183.203"/>
      <point x="144.185" y="184.601"/>
      <point x="146.62" y="185.553" type="curve"/>
      <point x="148.047" y="191.645"/>
      <point x="149.336" y="202.42"/>
      <point x="151.12" y="209.902" type="curve" smooth="yes"/>
      <point x="157.152" y="235.218"/>
      <point x="163.742" y="259.754"/>
      <point x="167.435" y="282.921" type="curve" smooth="yes"/>
      <point x="169.612" y="296.579"/>
      <point x="167.414" y="311.991"/>
      <point x="173.033" y="333.294" type="curve" smooth="yes"/>
      <point x="184.563" y="376.997"/>
      <point x="216.089" y="417.938"/>
    </contour>
  </outline>
</glyph>
<glyph name="afii57716" format="2">
  <advance width="712"/>
  <unicode hex="05F0"/>
  <outline>
    <contour>
      <point x="581.524" y="177.248" type="curve" smooth="yes"/>
      <point x="597.861" y="239.176"/>
      <point x="606.592" y="298.703"/>
      <point x="595.138" y="354.564" type="curve" smooth="yes"/>
      <point x="588.108" y="388.846"/>
      <point x="570.188" y="420.418"/>
      <point x="538.192" y="441.996" type="curve" smooth="yes"/>
      <point x="515.249" y="457.469"/>
      <point x="492.558" y="457.335"/>
      <point x="479.403" y="476.27" type="curve" smooth="yes"/>
      <point x="478.954" y="476.916" type="line"/>
      <point x="478.726" y="477.687" type="line" smooth="yes"/>
      <point x="475.997" y="486.902"/>
      <point x="475.324" y="497.862"/>
      <point x="477.506" y="509.809" type="curve" smooth="yes"/>
      <point x="478.166" y="513.431"/>
      <point x="478.967" y="517.21"/>
      <point x="479.929" y="520.854" type="curve" smooth="yes"/>
      <point x="485.863" y="543.354"/>
      <point x="505.178" y="580.321"/>
      <point x="560.073" y="628.031" type="curve" smooth="yes"/>
      <point x="573.776" y="639.942"/>
      <point x="596.908" y="657.233"/>
      <point x="632.145" y="661.817" type="curve" smooth="yes"/>
      <point x="638.125" y="662.596"/>
      <point x="643.801" y="662.828"/>
      <point x="649.254" y="662.828" type="curve" smooth="yes"/>
      <point x="660.386" y="662.828"/>
      <point x="675.531" y="662.797"/>
      <point x="702.24" y="651.98" type="curve" smooth="yes"/>
      <point x="741.629" y="635.044"/>
      <point x="765.233" y="606.138"/>
      <point x="775.278" y="577.857" type="curve" smooth="yes"/>
      <point x="782.229" y="558.288"/>
      <point x="781.403" y="536.918"/>
      <point x="780.493" y="519.583" type="curve" smooth="yes"/>
      <point x="778.771" y="487.018"/>
      <point x="772.646" y="453.978"/>
      <point x="764.043" y="421.373" type="curve" smooth="yes"/>
      <point x="761.396" y="411.343"/>
      <point x="758.513" y="401.365"/>
      <point x="755.461" y="391.436" type="curve" smooth="yes"/>
      <point x="728.357" y="303.3"/>
      <point x="705.789" y="213.602"/>
      <point x="673.16" y="123.155" type="curve" smooth="yes"/>
      <point x="662.607" y="93.9033"/>
      <point x="653.547" y="63.125"/>
      <point x="640.835" y="30.9541" type="curve" smooth="yes"/>
      <point x="635.988" y="18.6885"/>
      <point x="634.555" y="12.3281"/>
      <point x="629.082" y="2.81543" type="curve" smooth="yes"/>
      <point x="629.062" y="3.1748" type="line"/>
      <point x="628.813" y="2.82129" type="line" smooth="yes"/>
      <point x="628.459" y="2.81934"/>
      <point x="627.564" y="2.81543"/>
      <point x="626.604" y="2.8125" type="curve" smooth="yes"/>
      <point x="626.063" y="2.2168"/>
      <point x="624.01" y="0.295898"/>
      <point x="622.189" y="-1.07715" type="curve" smooth="yes"/>
      <point x="620.55" y="-2.31543" type="line"/>
      <point x="618.684" y="-2.75781" type="line" smooth="yes"/>
      <point x="618.452" y="-2.8125"/>
      <point x="617.133" y="-3.13574"/>
      <point x="615.619" y="-3.40625" type="curve"/>
      <point x="610.75" y="-6.06738"/>
      <point x="604.676" y="-9.53613"/>
      <point x="590.092" y="-12.1758" type="curve" smooth="yes"/>
      <point x="577.819" y="-14.3975"/>
      <point x="565.662" y="-14.5566"/>
      <point x="559.688" y="-14.5566" type="curve" smooth="yes"/>
      <point x="557.535" y="-14.5566"/>
      <point x="551.598" y="-14.4844"/>
      <point x="549.632" y="-14.4844" type="curve" smooth="yes"/>
      <point x="523.901" y="-14.4844" type="line"/>
      <point x="525.737" y="-7.52539" type="line" smooth="yes"/>
      <point x="542.138" y="54.6426"/>
      <point x="565.617" y="116.951"/>
    </contour>
    <contour>
      <point x="225.505" y="177.25" type="curve" smooth="yes"/>
      <point x="241.859" y="239.239"/>
      <point x="251.986" y="298.942"/>
      <point x="245.644" y="354.92" type="curve" smooth="yes"/>
      <point x="241.748" y="389.302"/>
      <point x="229.12" y="420.652"/>
      <point x="204.459" y="442.27" type="curve" smooth="yes"/>
      <point x="187.158" y="457.435"/>
      <point x="168.397" y="457.807"/>
      <point x="158.824" y="476.684" type="curve" smooth="yes"/>
      <point x="158.495" y="477.329" type="line"/>
      <point x="158.356" y="478.074" type="line" smooth="yes"/>
      <point x="156.648" y="487.24"/>
      <point x="156.68" y="498.112"/>
      <point x="159.026" y="509.919" type="curve" smooth="yes"/>
      <point x="159.755" y="513.574"/>
      <point x="160.549" y="517.113"/>
      <point x="161.498" y="520.71" type="curve" smooth="yes"/>
      <point x="167.358" y="542.925"/>
      <point x="184.545" y="579.733"/>
      <point x="231.322" y="627.614" type="curve" smooth="yes"/>
      <point x="242.831" y="639.395"/>
      <point x="262.63" y="657.094"/>
      <point x="291.946" y="661.795" type="curve" smooth="yes"/>
      <point x="296.934" y="662.594"/>
      <point x="301.576" y="662.828"/>
      <point x="306.062" y="662.828" type="curve" smooth="yes"/>
      <point x="315.151" y="662.828"/>
      <point x="326.039" y="662.727"/>
      <point x="348.687" y="651.894" type="curve" smooth="yes"/>
      <point x="385.307" y="634.373"/>
      <point x="409.105" y="606.127"/>
      <point x="419.237" y="577.864" type="curve" smooth="yes"/>
      <point x="426.247" y="558.312"/>
      <point x="425.386" y="536.898"/>
      <point x="424.473" y="519.583" type="curve" smooth="yes"/>
      <point x="422.755" y="487.035"/>
      <point x="416.795" y="453.995"/>
      <point x="408.189" y="421.376" type="curve" smooth="yes"/>
      <point x="405.539" y="411.325"/>
      <point x="402.529" y="401.357"/>
      <point x="399.434" y="391.408" type="curve" smooth="yes"/>
      <point x="372.264" y="303.277"/>
      <point x="349.776" y="213.603"/>
      <point x="317.144" y="123.155" type="curve" smooth="yes"/>
      <point x="306.59" y="93.9033"/>
      <point x="297.528" y="63.127"/>
      <point x="284.816" y="30.9541" type="curve" smooth="yes"/>
      <point x="279.969" y="18.6904"/>
      <point x="278.537" y="12.3281"/>
      <point x="273.062" y="2.81543" type="curve" smooth="yes"/>
      <point x="273.042" y="3.16602" type="line"/>
      <point x="272.793" y="2.81055" type="line" smooth="yes"/>
      <point x="272.438" y="2.81055"/>
      <point x="271.546" y="2.81055"/>
      <point x="270.584" y="2.80859" type="curve" smooth="yes"/>
      <point x="270.04" y="2.20898"/>
      <point x="267.987" y="0.291992"/>
      <point x="266.168" y="-1.0791" type="curve" smooth="yes"/>
      <point x="264.532" y="-2.31152" type="line"/>
      <point x="262.674" y="-2.75488" type="line" smooth="yes"/>
      <point x="262.43" y="-2.8125"/>
      <point x="261.11" y="-3.13477"/>
      <point x="259.6" y="-3.40332" type="curve"/>
      <point x="254.733" y="-6.06641"/>
      <point x="248.659" y="-9.53613"/>
      <point x="234.076" y="-12.1758" type="curve" smooth="yes"/>
      <point x="221.801" y="-14.3975"/>
      <point x="209.646" y="-14.5566"/>
      <point x="203.669" y="-14.5566" type="curve" smooth="yes"/>
      <point x="201.518" y="-14.5566"/>
      <point x="195.578" y="-14.4844"/>
      <point x="193.613" y="-14.4844" type="curve" smooth="yes"/>
      <point x="169.261" y="-14.4844" type="line"/>
      <point x="171.097" y="-7.52539" type="line" smooth="yes"/>
      <point x="187.479" y="54.5762"/>
      <point x="209.579" y="116.884"/>
    </contour>
  </outline>
</glyph>
<glyph name="enc-90" format="2">
  <advance width="0"/>
  <outline>
    <contour>
      <point x="0.97168" y="1.94434" type="line"/>
      <point x="1.94434" y="0.97168" type="line"/>
    </contour>
  </outline>
</glyph>
